<mxfile host="app.diagrams.net" agent="Mozilla/5.0 (Windows NT 10.0; Win64; x64) AppleWebKit/537.36 (KHTML, like Gecko) Chrome/135.0.0.0 Safari/537.36" version="26.2.14">
  <diagram name="Page-1" id="gKVhRMxGy7DFqW5gGoDP">
    <mxGraphModel dx="5868" dy="2248" grid="1" gridSize="10" guides="1" tooltips="1" connect="1" arrows="1" fold="1" page="1" pageScale="1" pageWidth="850" pageHeight="1100" math="0" shadow="0">
      <root>
        <mxCell id="0" />
        <mxCell id="1" parent="0" />
        <mxCell id="rUHpHmAmDrawOtp_Pwaj-1" style="edgeStyle=orthogonalEdgeStyle;rounded=0;orthogonalLoop=1;jettySize=auto;html=1;exitX=0;exitY=0.5;exitDx=0;exitDy=0;entryX=0.5;entryY=0;entryDx=0;entryDy=0;" edge="1" parent="1" source="rUHpHmAmDrawOtp_Pwaj-8" target="rUHpHmAmDrawOtp_Pwaj-24">
          <mxGeometry relative="1" as="geometry" />
        </mxCell>
        <mxCell id="rUHpHmAmDrawOtp_Pwaj-2" style="edgeStyle=orthogonalEdgeStyle;shape=connector;rounded=0;orthogonalLoop=1;jettySize=auto;html=1;exitX=0.25;exitY=1;exitDx=0;exitDy=0;entryX=0.5;entryY=0;entryDx=0;entryDy=0;strokeColor=default;align=center;verticalAlign=middle;fontFamily=Helvetica;fontSize=12;fontColor=default;labelBackgroundColor=default;startSize=8;endArrow=classic;endSize=8;" edge="1" parent="1" source="rUHpHmAmDrawOtp_Pwaj-8" target="rUHpHmAmDrawOtp_Pwaj-40">
          <mxGeometry relative="1" as="geometry" />
        </mxCell>
        <mxCell id="rUHpHmAmDrawOtp_Pwaj-3" style="edgeStyle=orthogonalEdgeStyle;shape=connector;rounded=0;orthogonalLoop=1;jettySize=auto;html=1;exitX=0.75;exitY=1;exitDx=0;exitDy=0;entryX=0.5;entryY=0;entryDx=0;entryDy=0;strokeColor=default;align=center;verticalAlign=middle;fontFamily=Helvetica;fontSize=12;fontColor=default;labelBackgroundColor=default;startSize=8;endArrow=classic;endSize=8;" edge="1" parent="1" source="rUHpHmAmDrawOtp_Pwaj-8" target="rUHpHmAmDrawOtp_Pwaj-47">
          <mxGeometry relative="1" as="geometry" />
        </mxCell>
        <mxCell id="rUHpHmAmDrawOtp_Pwaj-7" style="edgeStyle=orthogonalEdgeStyle;shape=connector;rounded=0;orthogonalLoop=1;jettySize=auto;html=1;exitX=1;exitY=1;exitDx=0;exitDy=0;entryX=0;entryY=0.5;entryDx=0;entryDy=0;strokeColor=default;align=center;verticalAlign=middle;fontFamily=Helvetica;fontSize=12;fontColor=default;labelBackgroundColor=default;startSize=8;endArrow=classic;endSize=8;" edge="1" parent="1" source="rUHpHmAmDrawOtp_Pwaj-8" target="rUHpHmAmDrawOtp_Pwaj-53">
          <mxGeometry relative="1" as="geometry" />
        </mxCell>
        <mxCell id="rUHpHmAmDrawOtp_Pwaj-101" style="edgeStyle=orthogonalEdgeStyle;rounded=0;orthogonalLoop=1;jettySize=auto;html=1;exitX=0.5;exitY=1;exitDx=0;exitDy=0;entryX=0.5;entryY=0;entryDx=0;entryDy=0;" edge="1" parent="1" source="rUHpHmAmDrawOtp_Pwaj-8" target="rUHpHmAmDrawOtp_Pwaj-100">
          <mxGeometry relative="1" as="geometry">
            <Array as="points">
              <mxPoint x="-840" y="610" />
              <mxPoint x="-1205" y="610" />
            </Array>
          </mxGeometry>
        </mxCell>
        <mxCell id="rUHpHmAmDrawOtp_Pwaj-106" style="edgeStyle=orthogonalEdgeStyle;rounded=0;orthogonalLoop=1;jettySize=auto;html=1;exitX=0.25;exitY=1;exitDx=0;exitDy=0;entryX=0.5;entryY=0;entryDx=0;entryDy=0;" edge="1" parent="1" source="rUHpHmAmDrawOtp_Pwaj-8" target="rUHpHmAmDrawOtp_Pwaj-103">
          <mxGeometry relative="1" as="geometry" />
        </mxCell>
        <mxCell id="rUHpHmAmDrawOtp_Pwaj-136" style="edgeStyle=orthogonalEdgeStyle;rounded=0;orthogonalLoop=1;jettySize=auto;html=1;exitX=0;exitY=0.25;exitDx=0;exitDy=0;entryX=0.5;entryY=1;entryDx=0;entryDy=0;" edge="1" parent="1" source="rUHpHmAmDrawOtp_Pwaj-8" target="rUHpHmAmDrawOtp_Pwaj-121">
          <mxGeometry relative="1" as="geometry" />
        </mxCell>
        <mxCell id="rUHpHmAmDrawOtp_Pwaj-137" style="edgeStyle=orthogonalEdgeStyle;rounded=0;orthogonalLoop=1;jettySize=auto;html=1;exitX=0;exitY=0.25;exitDx=0;exitDy=0;entryX=0;entryY=1;entryDx=0;entryDy=0;" edge="1" parent="1" source="rUHpHmAmDrawOtp_Pwaj-8" target="rUHpHmAmDrawOtp_Pwaj-27">
          <mxGeometry relative="1" as="geometry" />
        </mxCell>
        <mxCell id="rUHpHmAmDrawOtp_Pwaj-138" style="edgeStyle=orthogonalEdgeStyle;rounded=0;orthogonalLoop=1;jettySize=auto;html=1;exitX=0.25;exitY=0;exitDx=0;exitDy=0;entryX=0.5;entryY=1;entryDx=0;entryDy=0;" edge="1" parent="1" source="rUHpHmAmDrawOtp_Pwaj-8" target="rUHpHmAmDrawOtp_Pwaj-123">
          <mxGeometry relative="1" as="geometry" />
        </mxCell>
        <mxCell id="rUHpHmAmDrawOtp_Pwaj-141" style="edgeStyle=orthogonalEdgeStyle;rounded=0;orthogonalLoop=1;jettySize=auto;html=1;entryX=0;entryY=1;entryDx=0;entryDy=0;" edge="1" parent="1" source="rUHpHmAmDrawOtp_Pwaj-8" target="rUHpHmAmDrawOtp_Pwaj-43">
          <mxGeometry relative="1" as="geometry" />
        </mxCell>
        <mxCell id="rUHpHmAmDrawOtp_Pwaj-143" style="edgeStyle=orthogonalEdgeStyle;rounded=0;orthogonalLoop=1;jettySize=auto;html=1;exitX=1;exitY=0;exitDx=0;exitDy=0;entryX=0;entryY=1;entryDx=0;entryDy=0;" edge="1" parent="1" source="rUHpHmAmDrawOtp_Pwaj-8" target="rUHpHmAmDrawOtp_Pwaj-140">
          <mxGeometry relative="1" as="geometry" />
        </mxCell>
        <mxCell id="rUHpHmAmDrawOtp_Pwaj-151" style="edgeStyle=orthogonalEdgeStyle;rounded=0;orthogonalLoop=1;jettySize=auto;html=1;exitX=1;exitY=0.75;exitDx=0;exitDy=0;entryX=0;entryY=0.5;entryDx=0;entryDy=0;" edge="1" parent="1" source="rUHpHmAmDrawOtp_Pwaj-8" target="rUHpHmAmDrawOtp_Pwaj-146">
          <mxGeometry relative="1" as="geometry" />
        </mxCell>
        <mxCell id="rUHpHmAmDrawOtp_Pwaj-152" style="edgeStyle=orthogonalEdgeStyle;rounded=0;orthogonalLoop=1;jettySize=auto;html=1;exitX=1;exitY=1;exitDx=0;exitDy=0;entryX=0;entryY=0.5;entryDx=0;entryDy=0;" edge="1" parent="1" source="rUHpHmAmDrawOtp_Pwaj-8" target="rUHpHmAmDrawOtp_Pwaj-147">
          <mxGeometry relative="1" as="geometry" />
        </mxCell>
        <mxCell id="rUHpHmAmDrawOtp_Pwaj-159" style="edgeStyle=orthogonalEdgeStyle;rounded=0;orthogonalLoop=1;jettySize=auto;html=1;exitX=1;exitY=0.5;exitDx=0;exitDy=0;entryX=0;entryY=0.5;entryDx=0;entryDy=0;" edge="1" parent="1" source="rUHpHmAmDrawOtp_Pwaj-8" target="rUHpHmAmDrawOtp_Pwaj-52">
          <mxGeometry relative="1" as="geometry" />
        </mxCell>
        <mxCell id="rUHpHmAmDrawOtp_Pwaj-8" value="Users/&lt;div&gt;Passangers&lt;/div&gt;" style="rounded=0;whiteSpace=wrap;html=1;fillColor=#fff2cc;strokeColor=#d6b656;" vertex="1" parent="1">
          <mxGeometry x="-950" y="480" width="220" height="90" as="geometry" />
        </mxCell>
        <mxCell id="rUHpHmAmDrawOtp_Pwaj-10" style="edgeStyle=orthogonalEdgeStyle;shape=connector;rounded=0;orthogonalLoop=1;jettySize=auto;html=1;exitX=1;exitY=0.5;exitDx=0;exitDy=0;entryX=0;entryY=0.5;entryDx=0;entryDy=0;strokeColor=default;align=center;verticalAlign=middle;fontFamily=Helvetica;fontSize=12;fontColor=default;labelBackgroundColor=default;startSize=8;endArrow=classic;endSize=8;" edge="1" parent="1" source="rUHpHmAmDrawOtp_Pwaj-12" target="rUHpHmAmDrawOtp_Pwaj-32">
          <mxGeometry relative="1" as="geometry" />
        </mxCell>
        <mxCell id="rUHpHmAmDrawOtp_Pwaj-11" style="edgeStyle=orthogonalEdgeStyle;shape=connector;rounded=0;orthogonalLoop=1;jettySize=auto;html=1;exitX=1;exitY=0.75;exitDx=0;exitDy=0;entryX=0;entryY=0.5;entryDx=0;entryDy=0;strokeColor=default;align=center;verticalAlign=middle;fontFamily=Helvetica;fontSize=12;fontColor=default;labelBackgroundColor=default;startSize=8;endArrow=classic;endSize=8;" edge="1" parent="1" source="rUHpHmAmDrawOtp_Pwaj-12" target="rUHpHmAmDrawOtp_Pwaj-93">
          <mxGeometry relative="1" as="geometry" />
        </mxCell>
        <mxCell id="rUHpHmAmDrawOtp_Pwaj-165" style="edgeStyle=orthogonalEdgeStyle;rounded=0;orthogonalLoop=1;jettySize=auto;html=1;exitX=0.25;exitY=0;exitDx=0;exitDy=0;entryX=1;entryY=0;entryDx=0;entryDy=0;" edge="1" parent="1" source="rUHpHmAmDrawOtp_Pwaj-12" target="rUHpHmAmDrawOtp_Pwaj-162">
          <mxGeometry relative="1" as="geometry" />
        </mxCell>
        <mxCell id="rUHpHmAmDrawOtp_Pwaj-166" style="edgeStyle=orthogonalEdgeStyle;rounded=0;orthogonalLoop=1;jettySize=auto;html=1;exitX=0.5;exitY=0;exitDx=0;exitDy=0;" edge="1" parent="1" source="rUHpHmAmDrawOtp_Pwaj-12" target="rUHpHmAmDrawOtp_Pwaj-164">
          <mxGeometry relative="1" as="geometry" />
        </mxCell>
        <mxCell id="rUHpHmAmDrawOtp_Pwaj-169" style="edgeStyle=orthogonalEdgeStyle;rounded=0;orthogonalLoop=1;jettySize=auto;html=1;exitX=0.25;exitY=0;exitDx=0;exitDy=0;entryX=1;entryY=0.5;entryDx=0;entryDy=0;" edge="1" parent="1" source="rUHpHmAmDrawOtp_Pwaj-12" target="rUHpHmAmDrawOtp_Pwaj-163">
          <mxGeometry relative="1" as="geometry" />
        </mxCell>
        <mxCell id="rUHpHmAmDrawOtp_Pwaj-12" value="System" style="rounded=0;whiteSpace=wrap;html=1;fillColor=#fff2cc;strokeColor=#d6b656;" vertex="1" parent="1">
          <mxGeometry x="130" y="738.13" width="153" height="70" as="geometry" />
        </mxCell>
        <mxCell id="rUHpHmAmDrawOtp_Pwaj-13" style="edgeStyle=orthogonalEdgeStyle;shape=connector;rounded=0;orthogonalLoop=1;jettySize=auto;html=1;exitX=0.25;exitY=0;exitDx=0;exitDy=0;entryX=1;entryY=0.5;entryDx=0;entryDy=0;strokeColor=default;align=center;verticalAlign=middle;fontFamily=Helvetica;fontSize=12;fontColor=default;labelBackgroundColor=default;startSize=8;endArrow=classic;endSize=8;" edge="1" parent="1" source="rUHpHmAmDrawOtp_Pwaj-16" target="rUHpHmAmDrawOtp_Pwaj-29">
          <mxGeometry relative="1" as="geometry" />
        </mxCell>
        <mxCell id="rUHpHmAmDrawOtp_Pwaj-14" style="edgeStyle=orthogonalEdgeStyle;shape=connector;rounded=0;orthogonalLoop=1;jettySize=auto;html=1;exitX=0;exitY=0.25;exitDx=0;exitDy=0;entryX=1;entryY=0.5;entryDx=0;entryDy=0;strokeColor=default;align=center;verticalAlign=middle;fontFamily=Helvetica;fontSize=12;fontColor=default;labelBackgroundColor=default;startSize=8;endArrow=classic;endSize=8;" edge="1" parent="1" source="rUHpHmAmDrawOtp_Pwaj-16" target="rUHpHmAmDrawOtp_Pwaj-81">
          <mxGeometry relative="1" as="geometry" />
        </mxCell>
        <mxCell id="rUHpHmAmDrawOtp_Pwaj-15" style="edgeStyle=orthogonalEdgeStyle;shape=connector;rounded=0;orthogonalLoop=1;jettySize=auto;html=1;exitX=0;exitY=0.75;exitDx=0;exitDy=0;strokeColor=default;align=center;verticalAlign=middle;fontFamily=Helvetica;fontSize=12;fontColor=default;labelBackgroundColor=default;startSize=8;endArrow=classic;endSize=8;" edge="1" parent="1" source="rUHpHmAmDrawOtp_Pwaj-16" target="rUHpHmAmDrawOtp_Pwaj-82">
          <mxGeometry relative="1" as="geometry" />
        </mxCell>
        <mxCell id="rUHpHmAmDrawOtp_Pwaj-16" value="Drivers" style="rounded=0;whiteSpace=wrap;html=1;fillColor=#fff2cc;strokeColor=#d6b656;" vertex="1" parent="1">
          <mxGeometry x="440" y="471.25" width="140" height="60" as="geometry" />
        </mxCell>
        <mxCell id="rUHpHmAmDrawOtp_Pwaj-17" style="edgeStyle=orthogonalEdgeStyle;shape=connector;rounded=0;orthogonalLoop=1;jettySize=auto;html=1;exitX=0;exitY=0.5;exitDx=0;exitDy=0;entryX=1;entryY=0.5;entryDx=0;entryDy=0;strokeColor=default;align=center;verticalAlign=middle;fontFamily=Helvetica;fontSize=12;fontColor=default;labelBackgroundColor=default;startSize=8;endArrow=classic;endSize=8;" edge="1" parent="1" source="rUHpHmAmDrawOtp_Pwaj-22" target="rUHpHmAmDrawOtp_Pwaj-25">
          <mxGeometry relative="1" as="geometry" />
        </mxCell>
        <mxCell id="rUHpHmAmDrawOtp_Pwaj-20" style="edgeStyle=orthogonalEdgeStyle;shape=connector;rounded=0;orthogonalLoop=1;jettySize=auto;html=1;exitX=0.25;exitY=0;exitDx=0;exitDy=0;entryX=0.5;entryY=1;entryDx=0;entryDy=0;strokeColor=default;align=center;verticalAlign=middle;fontFamily=Helvetica;fontSize=12;fontColor=default;labelBackgroundColor=default;startSize=8;endArrow=classic;endSize=8;" edge="1" parent="1" source="rUHpHmAmDrawOtp_Pwaj-22" target="rUHpHmAmDrawOtp_Pwaj-33">
          <mxGeometry relative="1" as="geometry" />
        </mxCell>
        <mxCell id="rUHpHmAmDrawOtp_Pwaj-167" style="edgeStyle=orthogonalEdgeStyle;rounded=0;orthogonalLoop=1;jettySize=auto;html=1;exitX=0;exitY=0.5;exitDx=0;exitDy=0;entryX=1;entryY=0.5;entryDx=0;entryDy=0;" edge="1" parent="1" source="rUHpHmAmDrawOtp_Pwaj-22" target="rUHpHmAmDrawOtp_Pwaj-45">
          <mxGeometry relative="1" as="geometry" />
        </mxCell>
        <mxCell id="rUHpHmAmDrawOtp_Pwaj-168" style="edgeStyle=orthogonalEdgeStyle;rounded=0;orthogonalLoop=1;jettySize=auto;html=1;exitX=0;exitY=0.25;exitDx=0;exitDy=0;entryX=1;entryY=0.5;entryDx=0;entryDy=0;" edge="1" parent="1" source="rUHpHmAmDrawOtp_Pwaj-22" target="rUHpHmAmDrawOtp_Pwaj-67">
          <mxGeometry relative="1" as="geometry" />
        </mxCell>
        <mxCell id="rUHpHmAmDrawOtp_Pwaj-188" style="edgeStyle=orthogonalEdgeStyle;rounded=0;orthogonalLoop=1;jettySize=auto;html=1;exitX=0.25;exitY=0;exitDx=0;exitDy=0;entryX=1;entryY=0.5;entryDx=0;entryDy=0;" edge="1" parent="1" source="rUHpHmAmDrawOtp_Pwaj-22" target="rUHpHmAmDrawOtp_Pwaj-186">
          <mxGeometry relative="1" as="geometry" />
        </mxCell>
        <mxCell id="rUHpHmAmDrawOtp_Pwaj-191" style="edgeStyle=orthogonalEdgeStyle;rounded=0;orthogonalLoop=1;jettySize=auto;html=1;entryX=1;entryY=0.5;entryDx=0;entryDy=0;" edge="1" parent="1" source="rUHpHmAmDrawOtp_Pwaj-22" target="rUHpHmAmDrawOtp_Pwaj-190">
          <mxGeometry relative="1" as="geometry" />
        </mxCell>
        <mxCell id="rUHpHmAmDrawOtp_Pwaj-195" style="edgeStyle=orthogonalEdgeStyle;rounded=0;orthogonalLoop=1;jettySize=auto;html=1;exitX=0;exitY=0.75;exitDx=0;exitDy=0;entryX=1;entryY=0.5;entryDx=0;entryDy=0;" edge="1" parent="1" source="rUHpHmAmDrawOtp_Pwaj-22" target="rUHpHmAmDrawOtp_Pwaj-192">
          <mxGeometry relative="1" as="geometry" />
        </mxCell>
        <mxCell id="rUHpHmAmDrawOtp_Pwaj-196" style="edgeStyle=orthogonalEdgeStyle;rounded=0;orthogonalLoop=1;jettySize=auto;html=1;exitX=0;exitY=1;exitDx=0;exitDy=0;entryX=1;entryY=0.5;entryDx=0;entryDy=0;" edge="1" parent="1" source="rUHpHmAmDrawOtp_Pwaj-22" target="rUHpHmAmDrawOtp_Pwaj-193">
          <mxGeometry relative="1" as="geometry" />
        </mxCell>
        <mxCell id="rUHpHmAmDrawOtp_Pwaj-201" style="edgeStyle=orthogonalEdgeStyle;rounded=0;orthogonalLoop=1;jettySize=auto;html=1;exitX=0.5;exitY=0;exitDx=0;exitDy=0;entryX=0.5;entryY=1;entryDx=0;entryDy=0;" edge="1" parent="1" source="rUHpHmAmDrawOtp_Pwaj-22" target="rUHpHmAmDrawOtp_Pwaj-197">
          <mxGeometry relative="1" as="geometry" />
        </mxCell>
        <mxCell id="rUHpHmAmDrawOtp_Pwaj-205" style="edgeStyle=orthogonalEdgeStyle;rounded=0;orthogonalLoop=1;jettySize=auto;html=1;exitX=1;exitY=0.75;exitDx=0;exitDy=0;entryX=0;entryY=0.5;entryDx=0;entryDy=0;" edge="1" parent="1" source="rUHpHmAmDrawOtp_Pwaj-22" target="rUHpHmAmDrawOtp_Pwaj-74">
          <mxGeometry relative="1" as="geometry" />
        </mxCell>
        <mxCell id="rUHpHmAmDrawOtp_Pwaj-217" style="edgeStyle=orthogonalEdgeStyle;rounded=0;orthogonalLoop=1;jettySize=auto;html=1;exitX=1;exitY=1;exitDx=0;exitDy=0;" edge="1" parent="1" source="rUHpHmAmDrawOtp_Pwaj-22" target="rUHpHmAmDrawOtp_Pwaj-212">
          <mxGeometry relative="1" as="geometry" />
        </mxCell>
        <mxCell id="rUHpHmAmDrawOtp_Pwaj-218" style="edgeStyle=orthogonalEdgeStyle;rounded=0;orthogonalLoop=1;jettySize=auto;html=1;exitX=1;exitY=0.75;exitDx=0;exitDy=0;entryX=0;entryY=0.5;entryDx=0;entryDy=0;" edge="1" parent="1" source="rUHpHmAmDrawOtp_Pwaj-22" target="rUHpHmAmDrawOtp_Pwaj-213">
          <mxGeometry relative="1" as="geometry" />
        </mxCell>
        <mxCell id="rUHpHmAmDrawOtp_Pwaj-22" value="Administrators" style="rounded=0;whiteSpace=wrap;html=1;fillColor=#fff2cc;strokeColor=#d6b656;" vertex="1" parent="1">
          <mxGeometry x="-135" y="1175" width="150" height="75" as="geometry" />
        </mxCell>
        <mxCell id="rUHpHmAmDrawOtp_Pwaj-23" style="edgeStyle=orthogonalEdgeStyle;rounded=0;orthogonalLoop=1;jettySize=auto;html=1;exitX=0.5;exitY=1;exitDx=0;exitDy=0;entryX=0;entryY=0.5;entryDx=0;entryDy=0;" edge="1" parent="1" source="rUHpHmAmDrawOtp_Pwaj-24" target="rUHpHmAmDrawOtp_Pwaj-34">
          <mxGeometry relative="1" as="geometry" />
        </mxCell>
        <mxCell id="rUHpHmAmDrawOtp_Pwaj-24" value="&lt;p class=&quot;pf0&quot;&gt;&lt;span class=&quot;cf0&quot;&gt;1.1.1. Registration Form Processing&lt;/span&gt;&lt;/p&gt;" style="ellipse;whiteSpace=wrap;html=1;fillColor=#dae8fc;strokeColor=#6c8ebf;" vertex="1" parent="1">
          <mxGeometry x="-1430" y="700.63" width="120" height="55" as="geometry" />
        </mxCell>
        <mxCell id="rUHpHmAmDrawOtp_Pwaj-25" value="&lt;p class=&quot;pf0&quot;&gt;&lt;span class=&quot;cf0&quot;&gt;4.1.1. Admin User Creation Form&lt;/span&gt;&lt;/p&gt;" style="ellipse;whiteSpace=wrap;html=1;fillColor=#dae8fc;strokeColor=#6c8ebf;" vertex="1" parent="1">
          <mxGeometry x="-530" y="896.88" width="140" height="50" as="geometry" />
        </mxCell>
        <mxCell id="rUHpHmAmDrawOtp_Pwaj-27" value="&lt;p class=&quot;pf0&quot;&gt;&lt;span class=&quot;cf0&quot;&gt;2.1.1. All Routes Listing&lt;/span&gt;&lt;/p&gt;" style="ellipse;whiteSpace=wrap;html=1;fillColor=#dae8fc;strokeColor=#6c8ebf;" vertex="1" parent="1">
          <mxGeometry x="-990" y="250" width="100" height="50" as="geometry" />
        </mxCell>
        <mxCell id="rUHpHmAmDrawOtp_Pwaj-28" style="edgeStyle=orthogonalEdgeStyle;shape=connector;rounded=0;orthogonalLoop=1;jettySize=auto;html=1;exitX=0;exitY=0.5;exitDx=0;exitDy=0;entryX=0.75;entryY=0;entryDx=0;entryDy=0;strokeColor=default;align=center;verticalAlign=middle;fontFamily=Helvetica;fontSize=12;fontColor=default;labelBackgroundColor=default;startSize=8;endArrow=classic;endSize=8;" edge="1" parent="1" source="rUHpHmAmDrawOtp_Pwaj-29" target="rUHpHmAmDrawOtp_Pwaj-36">
          <mxGeometry relative="1" as="geometry" />
        </mxCell>
        <mxCell id="rUHpHmAmDrawOtp_Pwaj-29" value="&lt;p class=&quot;pf0&quot;&gt;&lt;span class=&quot;cf0&quot;&gt;6.1. Location Recording&lt;/span&gt;&lt;/p&gt;" style="ellipse;whiteSpace=wrap;html=1;fillColor=#dae8fc;strokeColor=#6c8ebf;" vertex="1" parent="1">
          <mxGeometry x="304" y="363.75" width="110" height="50" as="geometry" />
        </mxCell>
        <mxCell id="rUHpHmAmDrawOtp_Pwaj-30" style="edgeStyle=orthogonalEdgeStyle;shape=connector;rounded=0;orthogonalLoop=1;jettySize=auto;html=1;exitX=1;exitY=0.5;exitDx=0;exitDy=0;entryX=0;entryY=0.5;entryDx=0;entryDy=0;strokeColor=default;align=center;verticalAlign=middle;fontFamily=Helvetica;fontSize=12;fontColor=default;labelBackgroundColor=default;startSize=8;endArrow=classic;endSize=8;" edge="1" parent="1" source="rUHpHmAmDrawOtp_Pwaj-32" target="rUHpHmAmDrawOtp_Pwaj-95">
          <mxGeometry relative="1" as="geometry" />
        </mxCell>
        <mxCell id="rUHpHmAmDrawOtp_Pwaj-31" style="edgeStyle=orthogonalEdgeStyle;shape=connector;rounded=0;orthogonalLoop=1;jettySize=auto;html=1;entryX=1;entryY=0.25;entryDx=0;entryDy=0;strokeColor=default;align=center;verticalAlign=middle;fontFamily=Helvetica;fontSize=12;fontColor=default;labelBackgroundColor=default;startSize=8;endArrow=classic;endSize=8;" edge="1" parent="1" source="rUHpHmAmDrawOtp_Pwaj-32" target="rUHpHmAmDrawOtp_Pwaj-35">
          <mxGeometry relative="1" as="geometry" />
        </mxCell>
        <mxCell id="rUHpHmAmDrawOtp_Pwaj-32" value="&lt;p class=&quot;pf0&quot;&gt;&lt;span class=&quot;cf0&quot;&gt;7.1. Data Collection&lt;/span&gt;&lt;/p&gt;" style="ellipse;whiteSpace=wrap;html=1;fillColor=#dae8fc;strokeColor=#6c8ebf;" vertex="1" parent="1">
          <mxGeometry x="360" y="700" width="120" height="70" as="geometry" />
        </mxCell>
        <mxCell id="rUHpHmAmDrawOtp_Pwaj-33" value="&lt;p class=&quot;pf0&quot;&gt;&lt;span class=&quot;cf0&quot;&gt;5.1. Schedule Creation&lt;/span&gt;&lt;/p&gt;" style="ellipse;whiteSpace=wrap;html=1;fillColor=#dae8fc;strokeColor=#6c8ebf;" vertex="1" parent="1">
          <mxGeometry x="-270" y="1059.38" width="130" height="50" as="geometry" />
        </mxCell>
        <mxCell id="rUHpHmAmDrawOtp_Pwaj-34" value="User Database" style="shape=partialRectangle;whiteSpace=wrap;html=1;left=0;right=0;fillColor=light-dark(#dee8de, #1f2f1e);strokeColor=light-dark(#82b366, #ededed);shadow=1;strokeWidth=6;" vertex="1" parent="1">
          <mxGeometry x="-1040" y="1049.38" width="180" height="70" as="geometry" />
        </mxCell>
        <mxCell id="rUHpHmAmDrawOtp_Pwaj-35" value="Buses Database" style="shape=partialRectangle;whiteSpace=wrap;html=1;left=0;right=0;fillColor=light-dark(#dee8de, #1f2f1e);strokeColor=light-dark(#82b366, #ededed);shadow=1;" vertex="1" parent="1">
          <mxGeometry x="215" y="950" width="100" height="30" as="geometry" />
        </mxCell>
        <mxCell id="rUHpHmAmDrawOtp_Pwaj-36" value="&lt;font style=&quot;font-size: 18px;&quot;&gt;Operations Database&lt;/font&gt;" style="shape=partialRectangle;whiteSpace=wrap;html=1;left=0;right=0;fillColor=light-dark(#dee8de, #1f2f1e);strokeColor=light-dark(#82b366, #ededed);shadow=1;strokeWidth=7;" vertex="1" parent="1">
          <mxGeometry x="-150" y="380" width="200" height="100" as="geometry" />
        </mxCell>
        <mxCell id="rUHpHmAmDrawOtp_Pwaj-37" style="edgeStyle=orthogonalEdgeStyle;shape=connector;rounded=0;orthogonalLoop=1;jettySize=auto;html=1;entryX=0;entryY=1;entryDx=0;entryDy=0;strokeColor=default;align=center;verticalAlign=middle;fontFamily=Helvetica;fontSize=12;fontColor=default;labelBackgroundColor=default;startSize=8;endArrow=classic;endSize=8;" edge="1" parent="1" source="rUHpHmAmDrawOtp_Pwaj-38" target="rUHpHmAmDrawOtp_Pwaj-44">
          <mxGeometry relative="1" as="geometry" />
        </mxCell>
        <mxCell id="rUHpHmAmDrawOtp_Pwaj-38" value="&lt;p class=&quot;pf0&quot;&gt;&lt;span class=&quot;cf0&quot;&gt;3.1.1. Ticket Types Display&lt;/span&gt;&lt;/p&gt;" style="ellipse;whiteSpace=wrap;html=1;fillColor=#dae8fc;strokeColor=#6c8ebf;" vertex="1" parent="1">
          <mxGeometry x="-1510" y="223.75" width="100" height="50" as="geometry" />
        </mxCell>
        <mxCell id="rUHpHmAmDrawOtp_Pwaj-39" value="Ticket Database" style="shape=partialRectangle;whiteSpace=wrap;html=1;left=0;right=0;fillColor=light-dark(#dee8de, #1f2f1e);strokeColor=light-dark(#82b366, #ededed);shadow=1;strokeWidth=6;" vertex="1" parent="1">
          <mxGeometry x="-1360" y="55" width="100" height="30" as="geometry" />
        </mxCell>
        <mxCell id="rUHpHmAmDrawOtp_Pwaj-40" value="&lt;p class=&quot;pf0&quot;&gt;&lt;span class=&quot;cf0&quot;&gt;1.2.1. Credential Validation&lt;/span&gt;&lt;/p&gt;" style="ellipse;whiteSpace=wrap;html=1;fillColor=#dae8fc;strokeColor=#6c8ebf;" vertex="1" parent="1">
          <mxGeometry x="-1290" y="738.13" width="110" height="57.5" as="geometry" />
        </mxCell>
        <mxCell id="rUHpHmAmDrawOtp_Pwaj-41" style="edgeStyle=orthogonalEdgeStyle;rounded=0;orthogonalLoop=1;jettySize=auto;html=1;exitX=0.5;exitY=1;exitDx=0;exitDy=0;entryX=0;entryY=0.5;entryDx=0;entryDy=0;fontSize=12;startSize=8;endSize=8;" edge="1" parent="1" source="rUHpHmAmDrawOtp_Pwaj-40" target="rUHpHmAmDrawOtp_Pwaj-34">
          <mxGeometry relative="1" as="geometry" />
        </mxCell>
        <mxCell id="rUHpHmAmDrawOtp_Pwaj-42" style="edgeStyle=orthogonalEdgeStyle;shape=connector;rounded=0;orthogonalLoop=1;jettySize=auto;html=1;exitX=1;exitY=0.5;exitDx=0;exitDy=0;entryX=0.25;entryY=0;entryDx=0;entryDy=0;strokeColor=default;align=center;verticalAlign=middle;fontFamily=Helvetica;fontSize=12;fontColor=default;labelBackgroundColor=default;startSize=8;endArrow=classic;endSize=8;startArrow=classic;startFill=1;" edge="1" parent="1" source="rUHpHmAmDrawOtp_Pwaj-43" target="rUHpHmAmDrawOtp_Pwaj-36">
          <mxGeometry relative="1" as="geometry" />
        </mxCell>
        <mxCell id="rUHpHmAmDrawOtp_Pwaj-43" value="&lt;p class=&quot;pf0&quot;&gt;&lt;span class=&quot;cf0&quot;&gt;2.2.1. Daily Schedule&lt;/span&gt;&lt;/p&gt;" style="ellipse;whiteSpace=wrap;html=1;fillColor=#dae8fc;strokeColor=#6c8ebf;" vertex="1" parent="1">
          <mxGeometry x="-700" y="250" width="100" height="50" as="geometry" />
        </mxCell>
        <mxCell id="rUHpHmAmDrawOtp_Pwaj-44" value="&lt;p class=&quot;pf0&quot;&gt;&lt;span class=&quot;cf0&quot;&gt;3.3.1. Payment Method Selection&lt;/span&gt;&lt;/p&gt;" style="ellipse;whiteSpace=wrap;html=1;fillColor=#dae8fc;strokeColor=#6c8ebf;" vertex="1" parent="1">
          <mxGeometry x="-1350" y="200" width="100" height="50" as="geometry" />
        </mxCell>
        <mxCell id="rUHpHmAmDrawOtp_Pwaj-45" value="&lt;p class=&quot;pf0&quot;&gt;&lt;span class=&quot;cf0&quot;&gt;4.4. User Support&lt;/span&gt;&lt;/p&gt;" style="ellipse;whiteSpace=wrap;html=1;fillColor=#dae8fc;strokeColor=#6c8ebf;" vertex="1" parent="1">
          <mxGeometry x="-435" y="1280" width="130" height="50" as="geometry" />
        </mxCell>
        <mxCell id="rUHpHmAmDrawOtp_Pwaj-46" style="edgeStyle=orthogonalEdgeStyle;shape=connector;rounded=0;orthogonalLoop=1;jettySize=auto;html=1;exitX=0.5;exitY=1;exitDx=0;exitDy=0;entryX=0;entryY=0;entryDx=0;entryDy=0;strokeColor=default;align=center;verticalAlign=middle;fontFamily=Helvetica;fontSize=12;fontColor=default;labelBackgroundColor=default;startSize=8;endArrow=classic;endSize=8;" edge="1" parent="1" source="rUHpHmAmDrawOtp_Pwaj-47" target="rUHpHmAmDrawOtp_Pwaj-34">
          <mxGeometry relative="1" as="geometry" />
        </mxCell>
        <mxCell id="rUHpHmAmDrawOtp_Pwaj-47" value="&lt;p class=&quot;pf0&quot;&gt;&lt;span class=&quot;cf0&quot;&gt;1.3.1. Profile Picture Management&lt;/span&gt;&lt;/p&gt;" style="ellipse;whiteSpace=wrap;html=1;fillColor=#dae8fc;strokeColor=#6c8ebf;" vertex="1" parent="1">
          <mxGeometry x="-1190" y="699.38" width="110" height="57.5" as="geometry" />
        </mxCell>
        <mxCell id="rUHpHmAmDrawOtp_Pwaj-48" style="edgeStyle=orthogonalEdgeStyle;shape=connector;rounded=0;orthogonalLoop=1;jettySize=auto;html=1;exitX=0.5;exitY=1;exitDx=0;exitDy=0;entryX=0.75;entryY=0;entryDx=0;entryDy=0;strokeColor=default;align=center;verticalAlign=middle;fontFamily=Helvetica;fontSize=12;fontColor=default;labelBackgroundColor=default;startSize=8;endArrow=classic;endSize=8;" edge="1" parent="1" source="rUHpHmAmDrawOtp_Pwaj-49" target="rUHpHmAmDrawOtp_Pwaj-34">
          <mxGeometry relative="1" as="geometry" />
        </mxCell>
        <mxCell id="rUHpHmAmDrawOtp_Pwaj-49" value="&lt;p class=&quot;pf0&quot;&gt;&lt;span class=&quot;cf0&quot;&gt;1.4.1. Recovery Request&lt;/span&gt;&lt;/p&gt;" style="ellipse;whiteSpace=wrap;html=1;fillColor=#dae8fc;strokeColor=#6c8ebf;" vertex="1" parent="1">
          <mxGeometry x="-990" y="738.13" width="110" height="57.5" as="geometry" />
        </mxCell>
        <mxCell id="rUHpHmAmDrawOtp_Pwaj-50" style="edgeStyle=orthogonalEdgeStyle;shape=connector;rounded=0;orthogonalLoop=1;jettySize=auto;html=1;exitX=0.5;exitY=1;exitDx=0;exitDy=0;entryX=0.236;entryY=0.076;entryDx=0;entryDy=0;entryPerimeter=0;strokeColor=default;align=center;verticalAlign=middle;fontFamily=Helvetica;fontSize=12;fontColor=default;labelBackgroundColor=default;startSize=8;endArrow=classic;endSize=8;" edge="1" parent="1" source="rUHpHmAmDrawOtp_Pwaj-8" target="rUHpHmAmDrawOtp_Pwaj-49">
          <mxGeometry relative="1" as="geometry" />
        </mxCell>
        <mxCell id="rUHpHmAmDrawOtp_Pwaj-51" style="edgeStyle=orthogonalEdgeStyle;shape=connector;rounded=0;orthogonalLoop=1;jettySize=auto;html=1;exitX=1;exitY=0.5;exitDx=0;exitDy=0;entryX=0;entryY=0.25;entryDx=0;entryDy=0;strokeColor=default;align=center;verticalAlign=middle;fontFamily=Helvetica;fontSize=12;fontColor=default;labelBackgroundColor=default;startSize=8;endArrow=classic;endSize=8;" edge="1" parent="1" source="rUHpHmAmDrawOtp_Pwaj-52" target="rUHpHmAmDrawOtp_Pwaj-36">
          <mxGeometry relative="1" as="geometry" />
        </mxCell>
        <mxCell id="rUHpHmAmDrawOtp_Pwaj-52" value="&lt;p class=&quot;pf0&quot;&gt;&lt;span class=&quot;cf0&quot;&gt;2.3.1. Origin/Destination Input&lt;/span&gt;&lt;/p&gt;" style="ellipse;whiteSpace=wrap;html=1;fillColor=#dae8fc;strokeColor=#6c8ebf;" vertex="1" parent="1">
          <mxGeometry x="-642.5" y="426.88" width="100" height="50" as="geometry" />
        </mxCell>
        <mxCell id="rUHpHmAmDrawOtp_Pwaj-53" value="&lt;p class=&quot;pf0&quot;&gt;&lt;span class=&quot;cf0&quot;&gt;2.4. Stop Information&lt;/span&gt;&lt;/p&gt;" style="ellipse;whiteSpace=wrap;html=1;fillColor=#dae8fc;strokeColor=#6c8ebf;" vertex="1" parent="1">
          <mxGeometry x="-612.5" y="573.13" width="100" height="50" as="geometry" />
        </mxCell>
        <mxCell id="rUHpHmAmDrawOtp_Pwaj-54" style="edgeStyle=orthogonalEdgeStyle;shape=connector;rounded=0;orthogonalLoop=1;jettySize=auto;html=1;exitX=1;exitY=0.5;exitDx=0;exitDy=0;entryX=0;entryY=0.75;entryDx=0;entryDy=0;strokeColor=default;align=center;verticalAlign=middle;fontFamily=Helvetica;fontSize=12;fontColor=default;labelBackgroundColor=default;startSize=8;endArrow=classic;endSize=8;" edge="1" parent="1" source="rUHpHmAmDrawOtp_Pwaj-55" target="rUHpHmAmDrawOtp_Pwaj-36">
          <mxGeometry relative="1" as="geometry" />
        </mxCell>
        <mxCell id="rUHpHmAmDrawOtp_Pwaj-55" value="&lt;p class=&quot;pf0&quot;&gt;&lt;span class=&quot;cf0&quot;&gt;2.5.1. Delay Information&lt;/span&gt;&lt;/p&gt;" style="ellipse;whiteSpace=wrap;html=1;fillColor=#dae8fc;strokeColor=#6c8ebf;" vertex="1" parent="1">
          <mxGeometry x="-440" y="623.13" width="100" height="50" as="geometry" />
        </mxCell>
        <mxCell id="rUHpHmAmDrawOtp_Pwaj-56" style="edgeStyle=orthogonalEdgeStyle;shape=connector;rounded=0;orthogonalLoop=1;jettySize=auto;html=1;exitX=1;exitY=0.5;exitDx=0;exitDy=0;entryX=0;entryY=0.5;entryDx=0;entryDy=0;strokeColor=default;align=center;verticalAlign=middle;fontFamily=Helvetica;fontSize=12;fontColor=default;labelBackgroundColor=default;startSize=8;endArrow=classic;endSize=8;" edge="1" parent="1" source="rUHpHmAmDrawOtp_Pwaj-53" target="rUHpHmAmDrawOtp_Pwaj-36">
          <mxGeometry relative="1" as="geometry" />
        </mxCell>
        <mxCell id="rUHpHmAmDrawOtp_Pwaj-57" style="edgeStyle=orthogonalEdgeStyle;shape=connector;rounded=0;orthogonalLoop=1;jettySize=auto;html=1;entryX=1;entryY=0.5;entryDx=0;entryDy=0;strokeColor=default;align=center;verticalAlign=middle;fontFamily=Helvetica;fontSize=12;fontColor=default;labelBackgroundColor=default;startSize=8;endArrow=classic;endSize=8;startArrow=classic;startFill=1;" edge="1" parent="1" source="rUHpHmAmDrawOtp_Pwaj-58" target="rUHpHmAmDrawOtp_Pwaj-39">
          <mxGeometry relative="1" as="geometry" />
        </mxCell>
        <mxCell id="rUHpHmAmDrawOtp_Pwaj-58" value="&lt;p class=&quot;pf0&quot;&gt;&lt;span class=&quot;cf0&quot;&gt;3.4.2. Ticket Verification&lt;/span&gt;&lt;/p&gt;" style="ellipse;whiteSpace=wrap;html=1;fillColor=#dae8fc;strokeColor=#6c8ebf;" vertex="1" parent="1">
          <mxGeometry x="-1200" y="35" width="100" height="50" as="geometry" />
        </mxCell>
        <mxCell id="rUHpHmAmDrawOtp_Pwaj-183" style="edgeStyle=orthogonalEdgeStyle;rounded=0;orthogonalLoop=1;jettySize=auto;html=1;exitX=0;exitY=0;exitDx=0;exitDy=0;entryX=0.5;entryY=1;entryDx=0;entryDy=0;" edge="1" parent="1" source="rUHpHmAmDrawOtp_Pwaj-59" target="rUHpHmAmDrawOtp_Pwaj-182">
          <mxGeometry relative="1" as="geometry" />
        </mxCell>
        <mxCell id="rUHpHmAmDrawOtp_Pwaj-59" value="&lt;p class=&quot;pf0&quot;&gt;&lt;span class=&quot;cf0&quot;&gt;3.3 Payment Confirmation&lt;/span&gt;&lt;/p&gt;" style="ellipse;whiteSpace=wrap;html=1;fillColor=#dae8fc;strokeColor=#6c8ebf;" vertex="1" parent="1">
          <mxGeometry x="-1170" y="180" width="100" height="50" as="geometry" />
        </mxCell>
        <mxCell id="rUHpHmAmDrawOtp_Pwaj-61" style="edgeStyle=orthogonalEdgeStyle;shape=connector;rounded=0;orthogonalLoop=1;jettySize=auto;html=1;exitX=0.5;exitY=0;exitDx=0;exitDy=0;entryX=0.164;entryY=1.084;entryDx=0;entryDy=0;entryPerimeter=0;strokeColor=default;align=center;verticalAlign=middle;fontFamily=Helvetica;fontSize=12;fontColor=default;labelBackgroundColor=default;startSize=8;endArrow=classic;endSize=8;startArrow=classic;startFill=1;" edge="1" parent="1" source="rUHpHmAmDrawOtp_Pwaj-38" target="rUHpHmAmDrawOtp_Pwaj-39">
          <mxGeometry relative="1" as="geometry" />
        </mxCell>
        <mxCell id="rUHpHmAmDrawOtp_Pwaj-64" style="edgeStyle=orthogonalEdgeStyle;shape=connector;rounded=0;orthogonalLoop=1;jettySize=auto;html=1;exitX=0;exitY=0.5;exitDx=0;exitDy=0;entryX=1;entryY=0.25;entryDx=0;entryDy=0;strokeColor=default;align=center;verticalAlign=middle;fontFamily=Helvetica;fontSize=12;fontColor=default;labelBackgroundColor=default;startSize=8;endArrow=classic;endSize=8;" edge="1" parent="1" source="rUHpHmAmDrawOtp_Pwaj-65" target="rUHpHmAmDrawOtp_Pwaj-34">
          <mxGeometry relative="1" as="geometry" />
        </mxCell>
        <mxCell id="rUHpHmAmDrawOtp_Pwaj-65" value="&lt;span class=&quot;cf0&quot;&gt;4.1.3. System Account Creation&lt;/span&gt;" style="ellipse;whiteSpace=wrap;html=1;fillColor=#dae8fc;strokeColor=#6c8ebf;" vertex="1" parent="1">
          <mxGeometry x="-475" y="1080" width="100" height="50" as="geometry" />
        </mxCell>
        <mxCell id="rUHpHmAmDrawOtp_Pwaj-66" style="edgeStyle=orthogonalEdgeStyle;shape=connector;rounded=0;orthogonalLoop=1;jettySize=auto;html=1;exitX=0;exitY=0.5;exitDx=0;exitDy=0;strokeColor=default;align=center;verticalAlign=middle;fontFamily=Helvetica;fontSize=12;fontColor=default;labelBackgroundColor=default;startSize=8;endArrow=classic;endSize=8;entryX=1;entryY=0.5;entryDx=0;entryDy=0;" edge="1" parent="1" source="rUHpHmAmDrawOtp_Pwaj-67" target="rUHpHmAmDrawOtp_Pwaj-34">
          <mxGeometry relative="1" as="geometry">
            <mxPoint x="-470" y="1034.7272727272725" as="targetPoint" />
          </mxGeometry>
        </mxCell>
        <mxCell id="rUHpHmAmDrawOtp_Pwaj-67" value="&lt;p class=&quot;pf0&quot;&gt;&lt;span class=&quot;cf0&quot;&gt;4.3.1. Suspension Request&lt;/span&gt;&lt;/p&gt;" style="ellipse;whiteSpace=wrap;html=1;fillColor=#dae8fc;strokeColor=#6c8ebf;" vertex="1" parent="1">
          <mxGeometry x="-700" y="1160" width="100" height="50" as="geometry" />
        </mxCell>
        <mxCell id="rUHpHmAmDrawOtp_Pwaj-68" style="edgeStyle=orthogonalEdgeStyle;shape=connector;rounded=0;orthogonalLoop=1;jettySize=auto;html=1;exitX=0;exitY=0.75;exitDx=0;exitDy=0;entryX=1;entryY=0.5;entryDx=0;entryDy=0;strokeColor=default;align=center;verticalAlign=middle;fontFamily=Helvetica;fontSize=12;fontColor=default;labelBackgroundColor=default;startSize=8;endArrow=classic;endSize=8;" edge="1" parent="1" source="rUHpHmAmDrawOtp_Pwaj-22" target="rUHpHmAmDrawOtp_Pwaj-65">
          <mxGeometry relative="1" as="geometry" />
        </mxCell>
        <mxCell id="rUHpHmAmDrawOtp_Pwaj-69" style="edgeStyle=orthogonalEdgeStyle;shape=connector;rounded=0;orthogonalLoop=1;jettySize=auto;html=1;entryX=0.891;entryY=0.048;entryDx=0;entryDy=0;entryPerimeter=0;strokeColor=default;align=center;verticalAlign=middle;fontFamily=Helvetica;fontSize=12;fontColor=default;labelBackgroundColor=default;startSize=8;endArrow=classic;endSize=8;" edge="1" parent="1" source="rUHpHmAmDrawOtp_Pwaj-25" target="rUHpHmAmDrawOtp_Pwaj-34">
          <mxGeometry relative="1" as="geometry" />
        </mxCell>
        <mxCell id="rUHpHmAmDrawOtp_Pwaj-70" style="edgeStyle=orthogonalEdgeStyle;shape=connector;rounded=0;orthogonalLoop=1;jettySize=auto;html=1;exitX=0;exitY=1;exitDx=0;exitDy=0;entryX=0.36;entryY=1.018;entryDx=0;entryDy=0;entryPerimeter=0;strokeColor=default;align=center;verticalAlign=middle;fontFamily=Helvetica;fontSize=12;fontColor=default;labelBackgroundColor=default;startSize=8;endArrow=classic;endSize=8;" edge="1" parent="1" source="rUHpHmAmDrawOtp_Pwaj-45" target="rUHpHmAmDrawOtp_Pwaj-34">
          <mxGeometry relative="1" as="geometry" />
        </mxCell>
        <mxCell id="rUHpHmAmDrawOtp_Pwaj-71" style="edgeStyle=orthogonalEdgeStyle;shape=connector;rounded=0;orthogonalLoop=1;jettySize=auto;html=1;exitX=1;exitY=0;exitDx=0;exitDy=0;strokeColor=default;align=center;verticalAlign=middle;fontFamily=Helvetica;fontSize=12;fontColor=default;labelBackgroundColor=default;startSize=8;endArrow=classic;endSize=8;entryX=0.25;entryY=1;entryDx=0;entryDy=0;" edge="1" parent="1" source="rUHpHmAmDrawOtp_Pwaj-72" target="rUHpHmAmDrawOtp_Pwaj-36">
          <mxGeometry relative="1" as="geometry">
            <mxPoint x="-30" y="570" as="targetPoint" />
          </mxGeometry>
        </mxCell>
        <mxCell id="rUHpHmAmDrawOtp_Pwaj-72" value="&lt;p class=&quot;pf0&quot;&gt;&lt;span class=&quot;cf0&quot;&gt;5.2.1. Schedule Selection&lt;/span&gt;&lt;/p&gt;" style="ellipse;whiteSpace=wrap;html=1;fillColor=#dae8fc;strokeColor=#6c8ebf;" vertex="1" parent="1">
          <mxGeometry x="-190" y="900" width="130" height="50" as="geometry" />
        </mxCell>
        <mxCell id="rUHpHmAmDrawOtp_Pwaj-206" style="edgeStyle=orthogonalEdgeStyle;rounded=0;orthogonalLoop=1;jettySize=auto;html=1;exitX=0;exitY=0;exitDx=0;exitDy=0;entryX=0.75;entryY=1;entryDx=0;entryDy=0;" edge="1" parent="1" source="rUHpHmAmDrawOtp_Pwaj-73" target="rUHpHmAmDrawOtp_Pwaj-36">
          <mxGeometry relative="1" as="geometry">
            <Array as="points">
              <mxPoint x="160" y="860" />
              <mxPoint y="860" />
            </Array>
          </mxGeometry>
        </mxCell>
        <mxCell id="rUHpHmAmDrawOtp_Pwaj-73" value="&lt;p class=&quot;pf0&quot;&gt;&lt;span class=&quot;cf0&quot;&gt;5.3. Schedule Publication&lt;/span&gt;&lt;/p&gt;" style="ellipse;whiteSpace=wrap;html=1;fillColor=#dae8fc;strokeColor=#6c8ebf;" vertex="1" parent="1">
          <mxGeometry x="141.5" y="1090" width="130" height="50" as="geometry" />
        </mxCell>
        <mxCell id="rUHpHmAmDrawOtp_Pwaj-219" style="edgeStyle=orthogonalEdgeStyle;rounded=0;orthogonalLoop=1;jettySize=auto;html=1;exitX=0.5;exitY=0;exitDx=0;exitDy=0;" edge="1" parent="1" source="rUHpHmAmDrawOtp_Pwaj-74" target="rUHpHmAmDrawOtp_Pwaj-36">
          <mxGeometry relative="1" as="geometry">
            <Array as="points">
              <mxPoint x="220" y="1200" />
              <mxPoint x="220" y="890" />
              <mxPoint x="-50" y="890" />
            </Array>
          </mxGeometry>
        </mxCell>
        <mxCell id="rUHpHmAmDrawOtp_Pwaj-74" value="&lt;p class=&quot;pf0&quot;&gt;&lt;span class=&quot;cf0&quot;&gt;5.4.1. Holiday Schedule Creation&lt;/span&gt;&lt;/p&gt;" style="ellipse;whiteSpace=wrap;html=1;fillColor=#dae8fc;strokeColor=#6c8ebf;" vertex="1" parent="1">
          <mxGeometry x="250" y="1200" width="130" height="50" as="geometry" />
        </mxCell>
        <mxCell id="rUHpHmAmDrawOtp_Pwaj-75" style="edgeStyle=orthogonalEdgeStyle;shape=connector;rounded=0;orthogonalLoop=1;jettySize=auto;html=1;exitX=0.5;exitY=0;exitDx=0;exitDy=0;entryX=0.299;entryY=0.942;entryDx=0;entryDy=0;entryPerimeter=0;strokeColor=default;align=center;verticalAlign=middle;fontFamily=Helvetica;fontSize=12;fontColor=default;labelBackgroundColor=default;startSize=8;endArrow=classic;endSize=8;" edge="1" parent="1" source="rUHpHmAmDrawOtp_Pwaj-22" target="rUHpHmAmDrawOtp_Pwaj-72">
          <mxGeometry relative="1" as="geometry">
            <Array as="points">
              <mxPoint x="-110" y="1175" />
              <mxPoint x="-110" y="1063" />
              <mxPoint x="-151" y="1063" />
            </Array>
          </mxGeometry>
        </mxCell>
        <mxCell id="rUHpHmAmDrawOtp_Pwaj-77" style="edgeStyle=orthogonalEdgeStyle;shape=connector;rounded=0;orthogonalLoop=1;jettySize=auto;html=1;exitX=0.5;exitY=0;exitDx=0;exitDy=0;entryX=0.118;entryY=1.047;entryDx=0;entryDy=0;entryPerimeter=0;strokeColor=default;align=center;verticalAlign=middle;fontFamily=Helvetica;fontSize=12;fontColor=default;labelBackgroundColor=default;startSize=8;endArrow=classic;endSize=8;" edge="1" parent="1" source="rUHpHmAmDrawOtp_Pwaj-33" target="rUHpHmAmDrawOtp_Pwaj-36">
          <mxGeometry relative="1" as="geometry" />
        </mxCell>
        <mxCell id="rUHpHmAmDrawOtp_Pwaj-78" style="edgeStyle=orthogonalEdgeStyle;shape=connector;rounded=0;orthogonalLoop=1;jettySize=auto;html=1;exitX=0.5;exitY=0;exitDx=0;exitDy=0;entryX=0.389;entryY=1.022;entryDx=0;entryDy=0;entryPerimeter=0;strokeColor=default;align=center;verticalAlign=middle;fontFamily=Helvetica;fontSize=12;fontColor=default;labelBackgroundColor=default;startSize=8;endArrow=classic;endSize=8;" edge="1" parent="1" source="rUHpHmAmDrawOtp_Pwaj-199" target="rUHpHmAmDrawOtp_Pwaj-36">
          <mxGeometry relative="1" as="geometry" />
        </mxCell>
        <mxCell id="rUHpHmAmDrawOtp_Pwaj-80" style="edgeStyle=orthogonalEdgeStyle;shape=connector;rounded=0;orthogonalLoop=1;jettySize=auto;html=1;exitX=0;exitY=0.5;exitDx=0;exitDy=0;entryX=1;entryY=0.25;entryDx=0;entryDy=0;strokeColor=default;align=center;verticalAlign=middle;fontFamily=Helvetica;fontSize=12;fontColor=default;labelBackgroundColor=default;startSize=8;endArrow=classic;endSize=8;" edge="1" parent="1" source="rUHpHmAmDrawOtp_Pwaj-81" target="rUHpHmAmDrawOtp_Pwaj-36">
          <mxGeometry relative="1" as="geometry" />
        </mxCell>
        <mxCell id="rUHpHmAmDrawOtp_Pwaj-81" value="&lt;p class=&quot;pf0&quot;&gt;&lt;span class=&quot;cf0&quot;&gt;6.2. Status Updates&lt;/span&gt;&lt;/p&gt;" style="ellipse;whiteSpace=wrap;html=1;fillColor=#dae8fc;strokeColor=#6c8ebf;" vertex="1" parent="1">
          <mxGeometry x="240" y="440" width="110" height="50" as="geometry" />
        </mxCell>
        <mxCell id="rUHpHmAmDrawOtp_Pwaj-82" value="&lt;p class=&quot;pf0&quot;&gt;&lt;span class=&quot;cf0&quot;&gt;6.3. Delay Management&lt;/span&gt;&lt;/p&gt;" style="ellipse;whiteSpace=wrap;html=1;fillColor=#dae8fc;strokeColor=#6c8ebf;" vertex="1" parent="1">
          <mxGeometry x="250" y="531.25" width="110" height="50" as="geometry" />
        </mxCell>
        <mxCell id="rUHpHmAmDrawOtp_Pwaj-83" value="&lt;span class=&quot;cf0&quot;&gt;6.4. Incident Reporting&lt;/span&gt;" style="ellipse;whiteSpace=wrap;html=1;fillColor=#dae8fc;strokeColor=#6c8ebf;" vertex="1" parent="1">
          <mxGeometry x="330" y="610" width="110" height="50" as="geometry" />
        </mxCell>
        <mxCell id="rUHpHmAmDrawOtp_Pwaj-84" style="edgeStyle=orthogonalEdgeStyle;shape=connector;rounded=0;orthogonalLoop=1;jettySize=auto;html=1;exitX=0.25;exitY=1;exitDx=0;exitDy=0;entryX=0.619;entryY=0.066;entryDx=0;entryDy=0;entryPerimeter=0;strokeColor=default;align=center;verticalAlign=middle;fontFamily=Helvetica;fontSize=12;fontColor=default;labelBackgroundColor=default;startSize=8;endArrow=classic;endSize=8;" edge="1" parent="1" source="rUHpHmAmDrawOtp_Pwaj-16" target="rUHpHmAmDrawOtp_Pwaj-83">
          <mxGeometry relative="1" as="geometry" />
        </mxCell>
        <mxCell id="rUHpHmAmDrawOtp_Pwaj-85" style="edgeStyle=orthogonalEdgeStyle;shape=connector;rounded=0;orthogonalLoop=1;jettySize=auto;html=1;exitX=0;exitY=0.5;exitDx=0;exitDy=0;entryX=1.002;entryY=0.854;entryDx=0;entryDy=0;entryPerimeter=0;strokeColor=default;align=center;verticalAlign=middle;fontFamily=Helvetica;fontSize=12;fontColor=default;labelBackgroundColor=default;startSize=8;endArrow=classic;endSize=8;" edge="1" parent="1" source="rUHpHmAmDrawOtp_Pwaj-83" target="rUHpHmAmDrawOtp_Pwaj-36">
          <mxGeometry relative="1" as="geometry" />
        </mxCell>
        <mxCell id="rUHpHmAmDrawOtp_Pwaj-86" style="edgeStyle=orthogonalEdgeStyle;shape=connector;rounded=0;orthogonalLoop=1;jettySize=auto;html=1;exitX=0;exitY=0.5;exitDx=0;exitDy=0;entryX=1.007;entryY=0.564;entryDx=0;entryDy=0;entryPerimeter=0;strokeColor=default;align=center;verticalAlign=middle;fontFamily=Helvetica;fontSize=12;fontColor=default;labelBackgroundColor=default;startSize=8;endArrow=classic;endSize=8;" edge="1" parent="1" source="rUHpHmAmDrawOtp_Pwaj-82" target="rUHpHmAmDrawOtp_Pwaj-36">
          <mxGeometry relative="1" as="geometry" />
        </mxCell>
        <mxCell id="rUHpHmAmDrawOtp_Pwaj-87" style="edgeStyle=orthogonalEdgeStyle;shape=connector;rounded=0;orthogonalLoop=1;jettySize=auto;html=1;exitX=0.5;exitY=1;exitDx=0;exitDy=0;entryX=0.5;entryY=0;entryDx=0;entryDy=0;strokeColor=default;align=center;verticalAlign=middle;fontFamily=Helvetica;fontSize=12;fontColor=default;labelBackgroundColor=default;startSize=8;endArrow=classic;endSize=8;" edge="1" parent="1" source="rUHpHmAmDrawOtp_Pwaj-89" target="rUHpHmAmDrawOtp_Pwaj-91">
          <mxGeometry relative="1" as="geometry" />
        </mxCell>
        <mxCell id="rUHpHmAmDrawOtp_Pwaj-88" style="edgeStyle=orthogonalEdgeStyle;shape=connector;rounded=0;orthogonalLoop=1;jettySize=auto;html=1;exitX=1;exitY=0.5;exitDx=0;exitDy=0;entryX=0.5;entryY=1;entryDx=0;entryDy=0;strokeColor=default;align=center;verticalAlign=middle;fontFamily=Helvetica;fontSize=12;fontColor=default;labelBackgroundColor=default;startSize=8;endArrow=classic;endSize=8;" edge="1" parent="1" source="rUHpHmAmDrawOtp_Pwaj-89" target="rUHpHmAmDrawOtp_Pwaj-35">
          <mxGeometry relative="1" as="geometry" />
        </mxCell>
        <mxCell id="rUHpHmAmDrawOtp_Pwaj-89" value="7. Real-time location&lt;div&gt;&amp;nbsp;updates&amp;nbsp;&lt;/div&gt;" style="ellipse;whiteSpace=wrap;html=1;fillColor=#dae8fc;strokeColor=#6c8ebf;" vertex="1" parent="1">
          <mxGeometry x="670" y="700" width="120" height="70" as="geometry" />
        </mxCell>
        <mxCell id="rUHpHmAmDrawOtp_Pwaj-90" style="edgeStyle=orthogonalEdgeStyle;shape=connector;rounded=0;orthogonalLoop=1;jettySize=auto;html=1;exitX=0;exitY=0.5;exitDx=0;exitDy=0;entryX=1;entryY=0.5;entryDx=0;entryDy=0;strokeColor=default;align=center;verticalAlign=middle;fontFamily=Helvetica;fontSize=12;fontColor=default;labelBackgroundColor=default;startSize=8;endArrow=classic;endSize=8;" edge="1" parent="1" source="rUHpHmAmDrawOtp_Pwaj-91" target="rUHpHmAmDrawOtp_Pwaj-93">
          <mxGeometry relative="1" as="geometry" />
        </mxCell>
        <mxCell id="rUHpHmAmDrawOtp_Pwaj-91" value="&lt;p class=&quot;pf0&quot;&gt;&lt;span class=&quot;cf0&quot;&gt;7.4. Display Preparation&lt;/span&gt;&lt;/p&gt;" style="ellipse;whiteSpace=wrap;html=1;fillColor=#dae8fc;strokeColor=#6c8ebf;" vertex="1" parent="1">
          <mxGeometry x="670" y="800" width="120" height="70" as="geometry" />
        </mxCell>
        <mxCell id="rUHpHmAmDrawOtp_Pwaj-92" style="edgeStyle=orthogonalEdgeStyle;shape=connector;rounded=0;orthogonalLoop=1;jettySize=auto;html=1;exitX=0.5;exitY=1;exitDx=0;exitDy=0;entryX=1;entryY=0.5;entryDx=0;entryDy=0;strokeColor=default;align=center;verticalAlign=middle;fontFamily=Helvetica;fontSize=12;fontColor=default;labelBackgroundColor=default;startSize=8;endArrow=classic;endSize=8;" edge="1" parent="1" source="rUHpHmAmDrawOtp_Pwaj-93" target="rUHpHmAmDrawOtp_Pwaj-35">
          <mxGeometry relative="1" as="geometry" />
        </mxCell>
        <mxCell id="rUHpHmAmDrawOtp_Pwaj-93" value="&lt;span class=&quot;cf0&quot;&gt;7.5. Alert Generation&lt;/span&gt;" style="ellipse;whiteSpace=wrap;html=1;fillColor=#dae8fc;strokeColor=#6c8ebf;" vertex="1" parent="1">
          <mxGeometry x="430" y="830" width="120" height="70" as="geometry" />
        </mxCell>
        <mxCell id="rUHpHmAmDrawOtp_Pwaj-94" style="edgeStyle=orthogonalEdgeStyle;shape=connector;rounded=0;orthogonalLoop=1;jettySize=auto;html=1;exitX=1;exitY=0.5;exitDx=0;exitDy=0;entryX=0;entryY=0.5;entryDx=0;entryDy=0;strokeColor=default;align=center;verticalAlign=middle;fontFamily=Helvetica;fontSize=12;fontColor=default;labelBackgroundColor=default;startSize=8;endArrow=classic;endSize=8;" edge="1" parent="1" source="rUHpHmAmDrawOtp_Pwaj-95" target="rUHpHmAmDrawOtp_Pwaj-89">
          <mxGeometry relative="1" as="geometry" />
        </mxCell>
        <mxCell id="rUHpHmAmDrawOtp_Pwaj-95" value="&lt;p class=&quot;pf0&quot;&gt;&lt;span class=&quot;cf0&quot;&gt;7.2. Data Validation&lt;/span&gt;&lt;/p&gt;" style="ellipse;whiteSpace=wrap;html=1;fillColor=#dae8fc;strokeColor=#6c8ebf;" vertex="1" parent="1">
          <mxGeometry x="520" y="700" width="120" height="70" as="geometry" />
        </mxCell>
        <mxCell id="rUHpHmAmDrawOtp_Pwaj-96" style="edgeStyle=orthogonalEdgeStyle;shape=connector;rounded=0;orthogonalLoop=1;jettySize=auto;html=1;exitX=0.027;exitY=0.714;exitDx=0;exitDy=0;entryX=0.88;entryY=1.029;entryDx=0;entryDy=0;entryPerimeter=0;strokeColor=default;align=center;verticalAlign=middle;fontFamily=Helvetica;fontSize=12;fontColor=default;labelBackgroundColor=default;startSize=8;endArrow=classic;endSize=8;exitPerimeter=0;" edge="1" parent="1" source="rUHpHmAmDrawOtp_Pwaj-93" target="rUHpHmAmDrawOtp_Pwaj-36">
          <mxGeometry relative="1" as="geometry">
            <Array as="points">
              <mxPoint x="360" y="880" />
              <mxPoint x="360" y="810" />
              <mxPoint x="72" y="810" />
            </Array>
          </mxGeometry>
        </mxCell>
        <mxCell id="rUHpHmAmDrawOtp_Pwaj-98" style="edgeStyle=orthogonalEdgeStyle;rounded=0;orthogonalLoop=1;jettySize=auto;html=1;entryX=0;entryY=0.25;entryDx=0;entryDy=0;exitX=0.5;exitY=1;exitDx=0;exitDy=0;" edge="1" parent="1" source="rUHpHmAmDrawOtp_Pwaj-97" target="rUHpHmAmDrawOtp_Pwaj-34">
          <mxGeometry relative="1" as="geometry" />
        </mxCell>
        <mxCell id="rUHpHmAmDrawOtp_Pwaj-97" value="&lt;p class=&quot;pf0&quot;&gt;&lt;span class=&quot;cf0&quot;&gt;1.1.2. Account Creation&lt;/span&gt;&lt;/p&gt;" style="ellipse;whiteSpace=wrap;html=1;fillColor=#dae8fc;strokeColor=#6c8ebf;" vertex="1" parent="1">
          <mxGeometry x="-1350" y="645.63" width="120" height="55" as="geometry" />
        </mxCell>
        <mxCell id="rUHpHmAmDrawOtp_Pwaj-99" style="edgeStyle=orthogonalEdgeStyle;rounded=0;orthogonalLoop=1;jettySize=auto;html=1;exitX=0;exitY=0.75;exitDx=0;exitDy=0;entryX=0.306;entryY=0.052;entryDx=0;entryDy=0;entryPerimeter=0;" edge="1" parent="1" source="rUHpHmAmDrawOtp_Pwaj-8" target="rUHpHmAmDrawOtp_Pwaj-97">
          <mxGeometry relative="1" as="geometry" />
        </mxCell>
        <mxCell id="rUHpHmAmDrawOtp_Pwaj-105" style="edgeStyle=orthogonalEdgeStyle;rounded=0;orthogonalLoop=1;jettySize=auto;html=1;entryX=0;entryY=0.5;entryDx=0;entryDy=0;" edge="1" parent="1" source="rUHpHmAmDrawOtp_Pwaj-100" target="rUHpHmAmDrawOtp_Pwaj-34">
          <mxGeometry relative="1" as="geometry" />
        </mxCell>
        <mxCell id="rUHpHmAmDrawOtp_Pwaj-100" value="&lt;p class=&quot;pf0&quot;&gt;&lt;span class=&quot;cf0&quot;&gt;1.2.2. Security Monitoring&lt;/span&gt;&lt;/p&gt;" style="ellipse;whiteSpace=wrap;html=1;fillColor=#dae8fc;strokeColor=#6c8ebf;" vertex="1" parent="1">
          <mxGeometry x="-1260" y="821.88" width="110" height="57.5" as="geometry" />
        </mxCell>
        <mxCell id="rUHpHmAmDrawOtp_Pwaj-103" value="&lt;p class=&quot;pf0&quot;&gt;&lt;span class=&quot;cf0&quot;&gt;1.3.2. Profile&lt;/span&gt;&lt;span style=&quot;background-color: transparent; color: light-dark(rgb(0, 0, 0), rgb(255, 255, 255));&quot;&gt;&amp;nbsp;Editing&lt;/span&gt;&lt;/p&gt;" style="ellipse;whiteSpace=wrap;html=1;fillColor=#dae8fc;strokeColor=#6c8ebf;" vertex="1" parent="1">
          <mxGeometry x="-1110" y="754.38" width="105" height="65" as="geometry" />
        </mxCell>
        <mxCell id="rUHpHmAmDrawOtp_Pwaj-104" value="&lt;p class=&quot;pf0&quot;&gt;&lt;span class=&quot;cf0&quot;&gt;1.3.3. Privacy Settings&lt;/span&gt;&lt;/p&gt;" style="ellipse;whiteSpace=wrap;html=1;fillColor=#dae8fc;strokeColor=#6c8ebf;" vertex="1" parent="1">
          <mxGeometry x="-1040" y="839.38" width="110" height="57.5" as="geometry" />
        </mxCell>
        <mxCell id="rUHpHmAmDrawOtp_Pwaj-107" style="edgeStyle=orthogonalEdgeStyle;rounded=0;orthogonalLoop=1;jettySize=auto;html=1;exitX=0.5;exitY=1;exitDx=0;exitDy=0;entryX=0.601;entryY=-0.058;entryDx=0;entryDy=0;entryPerimeter=0;" edge="1" parent="1" source="rUHpHmAmDrawOtp_Pwaj-8" target="rUHpHmAmDrawOtp_Pwaj-104">
          <mxGeometry relative="1" as="geometry" />
        </mxCell>
        <mxCell id="rUHpHmAmDrawOtp_Pwaj-108" style="edgeStyle=orthogonalEdgeStyle;rounded=0;orthogonalLoop=1;jettySize=auto;html=1;entryX=0.059;entryY=-0.036;entryDx=0;entryDy=0;entryPerimeter=0;" edge="1" parent="1" source="rUHpHmAmDrawOtp_Pwaj-103" target="rUHpHmAmDrawOtp_Pwaj-34">
          <mxGeometry relative="1" as="geometry" />
        </mxCell>
        <mxCell id="rUHpHmAmDrawOtp_Pwaj-109" style="edgeStyle=orthogonalEdgeStyle;rounded=0;orthogonalLoop=1;jettySize=auto;html=1;exitX=0.5;exitY=1;exitDx=0;exitDy=0;entryX=0.305;entryY=0.004;entryDx=0;entryDy=0;entryPerimeter=0;" edge="1" parent="1" source="rUHpHmAmDrawOtp_Pwaj-104" target="rUHpHmAmDrawOtp_Pwaj-34">
          <mxGeometry relative="1" as="geometry" />
        </mxCell>
        <mxCell id="rUHpHmAmDrawOtp_Pwaj-110" value="&lt;p class=&quot;pf0&quot;&gt;&lt;span class=&quot;cf0&quot;&gt;1.4.2. Recovery Link Generation&lt;/span&gt;&lt;/p&gt;" style="ellipse;whiteSpace=wrap;html=1;fillColor=#dae8fc;strokeColor=#6c8ebf;" vertex="1" parent="1">
          <mxGeometry x="-930" y="659.38" width="110" height="57.5" as="geometry" />
        </mxCell>
        <mxCell id="rUHpHmAmDrawOtp_Pwaj-111" value="&lt;p class=&quot;pf0&quot;&gt;&lt;span class=&quot;cf0&quot;&gt;1.4.3. Password Reset&lt;/span&gt;&lt;/p&gt;" style="ellipse;whiteSpace=wrap;html=1;fillColor=#dae8fc;strokeColor=#6c8ebf;" vertex="1" parent="1">
          <mxGeometry x="-875" y="779.38" width="110" height="57.5" as="geometry" />
        </mxCell>
        <mxCell id="rUHpHmAmDrawOtp_Pwaj-120" style="edgeStyle=orthogonalEdgeStyle;rounded=0;orthogonalLoop=1;jettySize=auto;html=1;entryX=1;entryY=0.25;entryDx=0;entryDy=0;exitX=0.254;exitY=1;exitDx=0;exitDy=0;exitPerimeter=0;" edge="1" parent="1" source="rUHpHmAmDrawOtp_Pwaj-112" target="rUHpHmAmDrawOtp_Pwaj-34">
          <mxGeometry relative="1" as="geometry" />
        </mxCell>
        <mxCell id="rUHpHmAmDrawOtp_Pwaj-112" value="&lt;p class=&quot;pf0&quot;&gt;&lt;span class=&quot;cf0&quot;&gt;1.4.4. Account Reactivation&lt;/span&gt;&lt;/p&gt;" style="ellipse;whiteSpace=wrap;html=1;fillColor=#dae8fc;strokeColor=#6c8ebf;" vertex="1" parent="1">
          <mxGeometry x="-780" y="721.88" width="110" height="57.5" as="geometry" />
        </mxCell>
        <mxCell id="rUHpHmAmDrawOtp_Pwaj-116" style="edgeStyle=orthogonalEdgeStyle;rounded=0;orthogonalLoop=1;jettySize=auto;html=1;exitX=1;exitY=0.5;exitDx=0;exitDy=0;entryX=0.635;entryY=0.044;entryDx=0;entryDy=0;entryPerimeter=0;" edge="1" parent="1" source="rUHpHmAmDrawOtp_Pwaj-8" target="rUHpHmAmDrawOtp_Pwaj-111">
          <mxGeometry relative="1" as="geometry" />
        </mxCell>
        <mxCell id="rUHpHmAmDrawOtp_Pwaj-117" style="edgeStyle=orthogonalEdgeStyle;rounded=0;orthogonalLoop=1;jettySize=auto;html=1;exitX=0.5;exitY=1;exitDx=0;exitDy=0;entryX=0.575;entryY=-0.056;entryDx=0;entryDy=0;entryPerimeter=0;" edge="1" parent="1" source="rUHpHmAmDrawOtp_Pwaj-110" target="rUHpHmAmDrawOtp_Pwaj-34">
          <mxGeometry relative="1" as="geometry" />
        </mxCell>
        <mxCell id="rUHpHmAmDrawOtp_Pwaj-118" style="edgeStyle=orthogonalEdgeStyle;rounded=0;orthogonalLoop=1;jettySize=auto;html=1;exitX=0.5;exitY=1;exitDx=0;exitDy=0;entryX=0.449;entryY=-0.056;entryDx=0;entryDy=0;entryPerimeter=0;" edge="1" parent="1" source="rUHpHmAmDrawOtp_Pwaj-111" target="rUHpHmAmDrawOtp_Pwaj-34">
          <mxGeometry relative="1" as="geometry" />
        </mxCell>
        <mxCell id="rUHpHmAmDrawOtp_Pwaj-134" style="edgeStyle=orthogonalEdgeStyle;rounded=0;orthogonalLoop=1;jettySize=auto;html=1;exitX=0.5;exitY=0;exitDx=0;exitDy=0;startArrow=classic;startFill=1;" edge="1" parent="1" source="rUHpHmAmDrawOtp_Pwaj-121" target="rUHpHmAmDrawOtp_Pwaj-36">
          <mxGeometry relative="1" as="geometry">
            <Array as="points">
              <mxPoint x="-830" y="314" />
              <mxPoint x="-830" y="160" />
              <mxPoint x="15" y="160" />
            </Array>
          </mxGeometry>
        </mxCell>
        <mxCell id="rUHpHmAmDrawOtp_Pwaj-121" value="&lt;p class=&quot;pf0&quot;&gt;&lt;span class=&quot;cf0&quot;&gt;2.1.2. Route Filtering&lt;/span&gt;&lt;/p&gt;" style="ellipse;whiteSpace=wrap;html=1;fillColor=#dae8fc;strokeColor=#6c8ebf;" vertex="1" parent="1">
          <mxGeometry x="-950" y="323.75" width="100" height="50" as="geometry" />
        </mxCell>
        <mxCell id="rUHpHmAmDrawOtp_Pwaj-122" value="&lt;p class=&quot;pf0&quot;&gt;&lt;span class=&quot;cf0&quot;&gt;2.1.3. Route Search&lt;/span&gt;&lt;/p&gt;" style="ellipse;whiteSpace=wrap;html=1;fillColor=#dae8fc;strokeColor=#6c8ebf;" vertex="1" parent="1">
          <mxGeometry x="-870" y="273.75" width="100" height="50" as="geometry" />
        </mxCell>
        <mxCell id="rUHpHmAmDrawOtp_Pwaj-123" value="&lt;p class=&quot;pf0&quot;&gt;&lt;span class=&quot;cf0&quot;&gt;2.1.4. Route Visualization&lt;/span&gt;&lt;/p&gt;" style="ellipse;whiteSpace=wrap;html=1;fillColor=#dae8fc;strokeColor=#6c8ebf;" vertex="1" parent="1">
          <mxGeometry x="-810" y="220" width="100" height="50" as="geometry" />
        </mxCell>
        <mxCell id="rUHpHmAmDrawOtp_Pwaj-130" style="edgeStyle=orthogonalEdgeStyle;rounded=0;orthogonalLoop=1;jettySize=auto;html=1;exitX=0.163;exitY=0.027;exitDx=0;exitDy=0;entryX=0.39;entryY=0.955;entryDx=0;entryDy=0;entryPerimeter=0;exitPerimeter=0;" edge="1" parent="1" source="rUHpHmAmDrawOtp_Pwaj-8" target="rUHpHmAmDrawOtp_Pwaj-122">
          <mxGeometry relative="1" as="geometry" />
        </mxCell>
        <mxCell id="rUHpHmAmDrawOtp_Pwaj-132" style="edgeStyle=orthogonalEdgeStyle;rounded=0;orthogonalLoop=1;jettySize=auto;html=1;exitX=1;exitY=0.5;exitDx=0;exitDy=0;entryX=0.56;entryY=0.027;entryDx=0;entryDy=0;entryPerimeter=0;" edge="1" parent="1" source="rUHpHmAmDrawOtp_Pwaj-123" target="rUHpHmAmDrawOtp_Pwaj-36">
          <mxGeometry relative="1" as="geometry" />
        </mxCell>
        <mxCell id="rUHpHmAmDrawOtp_Pwaj-133" style="edgeStyle=orthogonalEdgeStyle;rounded=0;orthogonalLoop=1;jettySize=auto;html=1;exitX=0.371;exitY=0.009;exitDx=0;exitDy=0;entryX=0.387;entryY=-0.003;entryDx=0;entryDy=0;entryPerimeter=0;exitPerimeter=0;" edge="1" parent="1" source="rUHpHmAmDrawOtp_Pwaj-122" target="rUHpHmAmDrawOtp_Pwaj-36">
          <mxGeometry relative="1" as="geometry">
            <Array as="points">
              <mxPoint x="-803" y="180" />
              <mxPoint x="-2" y="180" />
            </Array>
          </mxGeometry>
        </mxCell>
        <mxCell id="rUHpHmAmDrawOtp_Pwaj-135" style="edgeStyle=orthogonalEdgeStyle;rounded=0;orthogonalLoop=1;jettySize=auto;html=1;entryX=0.708;entryY=0.02;entryDx=0;entryDy=0;entryPerimeter=0;exitX=0.5;exitY=0;exitDx=0;exitDy=0;" edge="1" parent="1" source="rUHpHmAmDrawOtp_Pwaj-27" target="rUHpHmAmDrawOtp_Pwaj-36">
          <mxGeometry relative="1" as="geometry">
            <Array as="points">
              <mxPoint x="-850" y="240" />
              <mxPoint x="-850" y="130" />
              <mxPoint x="25" y="130" />
              <mxPoint x="25" y="384" />
            </Array>
          </mxGeometry>
        </mxCell>
        <mxCell id="rUHpHmAmDrawOtp_Pwaj-145" style="edgeStyle=orthogonalEdgeStyle;rounded=0;orthogonalLoop=1;jettySize=auto;html=1;exitX=1;exitY=1;exitDx=0;exitDy=0;entryX=0.25;entryY=0;entryDx=0;entryDy=0;" edge="1" parent="1" source="rUHpHmAmDrawOtp_Pwaj-139" target="rUHpHmAmDrawOtp_Pwaj-36">
          <mxGeometry relative="1" as="geometry" />
        </mxCell>
        <mxCell id="rUHpHmAmDrawOtp_Pwaj-139" value="&lt;p class=&quot;pf0&quot;&gt;&lt;span class=&quot;cf0&quot;&gt;2.2.2. Weekly Schedule&lt;/span&gt;&lt;/p&gt;" style="ellipse;whiteSpace=wrap;html=1;fillColor=#dae8fc;strokeColor=#6c8ebf;" vertex="1" parent="1">
          <mxGeometry x="-660" y="310" width="100" height="50" as="geometry" />
        </mxCell>
        <mxCell id="rUHpHmAmDrawOtp_Pwaj-140" value="&lt;p class=&quot;pf0&quot;&gt;&lt;span class=&quot;cf0&quot;&gt;2.2.3. Route-specific Schedule&lt;/span&gt;&lt;/p&gt;" style="ellipse;whiteSpace=wrap;html=1;fillColor=#dae8fc;strokeColor=#6c8ebf;" vertex="1" parent="1">
          <mxGeometry x="-560" y="280" width="100" height="50" as="geometry" />
        </mxCell>
        <mxCell id="rUHpHmAmDrawOtp_Pwaj-142" style="edgeStyle=orthogonalEdgeStyle;rounded=0;orthogonalLoop=1;jettySize=auto;html=1;exitX=0.75;exitY=0;exitDx=0;exitDy=0;entryX=0.227;entryY=0.991;entryDx=0;entryDy=0;entryPerimeter=0;" edge="1" parent="1" source="rUHpHmAmDrawOtp_Pwaj-8" target="rUHpHmAmDrawOtp_Pwaj-139">
          <mxGeometry relative="1" as="geometry" />
        </mxCell>
        <mxCell id="rUHpHmAmDrawOtp_Pwaj-144" style="edgeStyle=orthogonalEdgeStyle;rounded=0;orthogonalLoop=1;jettySize=auto;html=1;exitX=1;exitY=0.5;exitDx=0;exitDy=0;entryX=0.138;entryY=-0.04;entryDx=0;entryDy=0;entryPerimeter=0;" edge="1" parent="1" source="rUHpHmAmDrawOtp_Pwaj-140" target="rUHpHmAmDrawOtp_Pwaj-36">
          <mxGeometry relative="1" as="geometry" />
        </mxCell>
        <mxCell id="rUHpHmAmDrawOtp_Pwaj-146" value="&lt;p class=&quot;pf0&quot;&gt;&lt;span class=&quot;cf0&quot;&gt;2.3.2. Route Calculation&lt;/span&gt;&lt;/p&gt;" style="ellipse;whiteSpace=wrap;html=1;fillColor=#dae8fc;strokeColor=#6c8ebf;" vertex="1" parent="1">
          <mxGeometry x="-612.5" y="484.38" width="100" height="50" as="geometry" />
        </mxCell>
        <mxCell id="rUHpHmAmDrawOtp_Pwaj-147" value="&lt;p class=&quot;pf0&quot;&gt;&lt;span class=&quot;cf0&quot;&gt;2.3.3. Journey Optimization&lt;/span&gt;&lt;/p&gt;" style="ellipse;whiteSpace=wrap;html=1;fillColor=#dae8fc;strokeColor=#6c8ebf;" vertex="1" parent="1">
          <mxGeometry x="-527.5" y="533.13" width="100" height="50" as="geometry" />
        </mxCell>
        <mxCell id="rUHpHmAmDrawOtp_Pwaj-153" style="edgeStyle=orthogonalEdgeStyle;rounded=0;orthogonalLoop=1;jettySize=auto;html=1;exitX=1;exitY=0.5;exitDx=0;exitDy=0;entryX=-0.018;entryY=0.592;entryDx=0;entryDy=0;entryPerimeter=0;" edge="1" parent="1" source="rUHpHmAmDrawOtp_Pwaj-147" target="rUHpHmAmDrawOtp_Pwaj-36">
          <mxGeometry relative="1" as="geometry" />
        </mxCell>
        <mxCell id="rUHpHmAmDrawOtp_Pwaj-154" style="edgeStyle=orthogonalEdgeStyle;rounded=0;orthogonalLoop=1;jettySize=auto;html=1;exitX=1;exitY=0.5;exitDx=0;exitDy=0;entryX=-0.01;entryY=0.423;entryDx=0;entryDy=0;entryPerimeter=0;" edge="1" parent="1" source="rUHpHmAmDrawOtp_Pwaj-146" target="rUHpHmAmDrawOtp_Pwaj-36">
          <mxGeometry relative="1" as="geometry" />
        </mxCell>
        <mxCell id="rUHpHmAmDrawOtp_Pwaj-155" style="edgeStyle=orthogonalEdgeStyle;rounded=0;orthogonalLoop=1;jettySize=auto;html=1;exitX=0;exitY=0.25;exitDx=0;exitDy=0;entryX=0.69;entryY=1;entryDx=0;entryDy=0;entryPerimeter=0;" edge="1" parent="1" source="rUHpHmAmDrawOtp_Pwaj-8" target="rUHpHmAmDrawOtp_Pwaj-38">
          <mxGeometry relative="1" as="geometry" />
        </mxCell>
        <mxCell id="rUHpHmAmDrawOtp_Pwaj-158" style="edgeStyle=orthogonalEdgeStyle;rounded=0;orthogonalLoop=1;jettySize=auto;html=1;exitX=0.75;exitY=1;exitDx=0;exitDy=0;entryX=0.269;entryY=0.103;entryDx=0;entryDy=0;entryPerimeter=0;" edge="1" parent="1" source="rUHpHmAmDrawOtp_Pwaj-8" target="rUHpHmAmDrawOtp_Pwaj-112">
          <mxGeometry relative="1" as="geometry" />
        </mxCell>
        <mxCell id="rUHpHmAmDrawOtp_Pwaj-160" style="edgeStyle=orthogonalEdgeStyle;rounded=0;orthogonalLoop=1;jettySize=auto;html=1;exitX=0.25;exitY=1;exitDx=0;exitDy=0;entryX=0.59;entryY=0.076;entryDx=0;entryDy=0;entryPerimeter=0;" edge="1" parent="1" source="rUHpHmAmDrawOtp_Pwaj-8" target="rUHpHmAmDrawOtp_Pwaj-110">
          <mxGeometry relative="1" as="geometry" />
        </mxCell>
        <mxCell id="rUHpHmAmDrawOtp_Pwaj-161" style="edgeStyle=orthogonalEdgeStyle;rounded=0;orthogonalLoop=1;jettySize=auto;html=1;exitX=0.25;exitY=0;exitDx=0;exitDy=0;entryX=1;entryY=0.337;entryDx=0;entryDy=0;entryPerimeter=0;" edge="1" parent="1" source="rUHpHmAmDrawOtp_Pwaj-12" target="rUHpHmAmDrawOtp_Pwaj-55">
          <mxGeometry relative="1" as="geometry" />
        </mxCell>
        <mxCell id="rUHpHmAmDrawOtp_Pwaj-162" value="&lt;p class=&quot;pf0&quot;&gt;&lt;span class=&quot;cf0&quot;&gt;2.5.2. Service Disruptions&lt;/span&gt;&lt;/p&gt;" style="ellipse;whiteSpace=wrap;html=1;fillColor=#dae8fc;strokeColor=#6c8ebf;" vertex="1" parent="1">
          <mxGeometry x="-405" y="738.13" width="100" height="50" as="geometry" />
        </mxCell>
        <mxCell id="rUHpHmAmDrawOtp_Pwaj-163" value="&lt;p class=&quot;pf0&quot;&gt;&lt;span class=&quot;cf0&quot;&gt;2.5.3. Schedule Changes&lt;/span&gt;&lt;/p&gt;" style="ellipse;whiteSpace=wrap;html=1;fillColor=#dae8fc;strokeColor=#6c8ebf;" vertex="1" parent="1">
          <mxGeometry x="-550" y="666.88" width="100" height="50" as="geometry" />
        </mxCell>
        <mxCell id="rUHpHmAmDrawOtp_Pwaj-164" value="&lt;p class=&quot;pf0&quot;&gt;&lt;span class=&quot;cf0&quot;&gt;2.5.4. Weather Impacts&lt;/span&gt;&lt;/p&gt;" style="ellipse;whiteSpace=wrap;html=1;fillColor=#dae8fc;strokeColor=#6c8ebf;" vertex="1" parent="1">
          <mxGeometry x="-360" y="800" width="100" height="50" as="geometry" />
        </mxCell>
        <mxCell id="rUHpHmAmDrawOtp_Pwaj-173" style="edgeStyle=orthogonalEdgeStyle;rounded=0;orthogonalLoop=1;jettySize=auto;html=1;exitX=1;exitY=0.5;exitDx=0;exitDy=0;entryX=0.5;entryY=1;entryDx=0;entryDy=0;" edge="1" parent="1" source="rUHpHmAmDrawOtp_Pwaj-170" target="rUHpHmAmDrawOtp_Pwaj-44">
          <mxGeometry relative="1" as="geometry" />
        </mxCell>
        <mxCell id="rUHpHmAmDrawOtp_Pwaj-170" value="&lt;p class=&quot;pf0&quot;&gt;&lt;span class=&quot;cf0&quot;&gt;3.1.2. Ticket Filtering&lt;/span&gt;&lt;/p&gt;" style="ellipse;whiteSpace=wrap;html=1;fillColor=#dae8fc;strokeColor=#6c8ebf;" vertex="1" parent="1">
          <mxGeometry x="-1420" y="270" width="100" height="50" as="geometry" />
        </mxCell>
        <mxCell id="rUHpHmAmDrawOtp_Pwaj-171" style="edgeStyle=orthogonalEdgeStyle;rounded=0;orthogonalLoop=1;jettySize=auto;html=1;exitX=0;exitY=0.25;exitDx=0;exitDy=0;entryX=0.721;entryY=0.957;entryDx=0;entryDy=0;entryPerimeter=0;" edge="1" parent="1" source="rUHpHmAmDrawOtp_Pwaj-8" target="rUHpHmAmDrawOtp_Pwaj-170">
          <mxGeometry relative="1" as="geometry" />
        </mxCell>
        <mxCell id="rUHpHmAmDrawOtp_Pwaj-172" style="edgeStyle=orthogonalEdgeStyle;rounded=0;orthogonalLoop=1;jettySize=auto;html=1;exitX=0.5;exitY=0;exitDx=0;exitDy=0;entryX=0.384;entryY=1.181;entryDx=0;entryDy=0;entryPerimeter=0;" edge="1" parent="1" source="rUHpHmAmDrawOtp_Pwaj-170" target="rUHpHmAmDrawOtp_Pwaj-39">
          <mxGeometry relative="1" as="geometry" />
        </mxCell>
        <mxCell id="rUHpHmAmDrawOtp_Pwaj-174" value="&lt;p class=&quot;pf0&quot;&gt;&lt;span class=&quot;cf0&quot;&gt;3.3.2. Payment Authorization&lt;/span&gt;&lt;/p&gt;" style="ellipse;whiteSpace=wrap;html=1;fillColor=#dae8fc;strokeColor=#6c8ebf;" vertex="1" parent="1">
          <mxGeometry x="-1255" y="240" width="100" height="50" as="geometry" />
        </mxCell>
        <mxCell id="rUHpHmAmDrawOtp_Pwaj-175" value="&lt;p class=&quot;pf0&quot;&gt;&lt;span class=&quot;cf0&quot;&gt;3.3.3. Transaction Processing&lt;/span&gt;&lt;/p&gt;" style="ellipse;whiteSpace=wrap;html=1;fillColor=#dae8fc;strokeColor=#6c8ebf;" vertex="1" parent="1">
          <mxGeometry x="-1240" y="330" width="100" height="50" as="geometry" />
        </mxCell>
        <mxCell id="rUHpHmAmDrawOtp_Pwaj-176" value="&lt;p class=&quot;pf0&quot;&gt;&lt;span class=&quot;cf0&quot;&gt;3.3.4. Receipt Generation&lt;/span&gt;&lt;/p&gt;" style="ellipse;whiteSpace=wrap;html=1;fillColor=#dae8fc;strokeColor=#6c8ebf;" vertex="1" parent="1">
          <mxGeometry x="-1150" y="270" width="100" height="50" as="geometry" />
        </mxCell>
        <mxCell id="rUHpHmAmDrawOtp_Pwaj-178" style="edgeStyle=orthogonalEdgeStyle;rounded=0;orthogonalLoop=1;jettySize=auto;html=1;exitX=1;exitY=0.5;exitDx=0;exitDy=0;entryX=0.257;entryY=0.053;entryDx=0;entryDy=0;entryPerimeter=0;" edge="1" parent="1" source="rUHpHmAmDrawOtp_Pwaj-44" target="rUHpHmAmDrawOtp_Pwaj-174">
          <mxGeometry relative="1" as="geometry" />
        </mxCell>
        <mxCell id="rUHpHmAmDrawOtp_Pwaj-179" style="edgeStyle=orthogonalEdgeStyle;rounded=0;orthogonalLoop=1;jettySize=auto;html=1;entryX=0.378;entryY=0.034;entryDx=0;entryDy=0;entryPerimeter=0;" edge="1" parent="1" source="rUHpHmAmDrawOtp_Pwaj-174" target="rUHpHmAmDrawOtp_Pwaj-175">
          <mxGeometry relative="1" as="geometry" />
        </mxCell>
        <mxCell id="rUHpHmAmDrawOtp_Pwaj-180" style="edgeStyle=orthogonalEdgeStyle;rounded=0;orthogonalLoop=1;jettySize=auto;html=1;entryX=0.717;entryY=1.011;entryDx=0;entryDy=0;entryPerimeter=0;exitX=1;exitY=0.5;exitDx=0;exitDy=0;" edge="1" parent="1" source="rUHpHmAmDrawOtp_Pwaj-175" target="rUHpHmAmDrawOtp_Pwaj-176">
          <mxGeometry relative="1" as="geometry" />
        </mxCell>
        <mxCell id="rUHpHmAmDrawOtp_Pwaj-181" style="edgeStyle=orthogonalEdgeStyle;rounded=0;orthogonalLoop=1;jettySize=auto;html=1;exitX=0.5;exitY=0;exitDx=0;exitDy=0;entryX=0.649;entryY=0.996;entryDx=0;entryDy=0;entryPerimeter=0;" edge="1" parent="1" source="rUHpHmAmDrawOtp_Pwaj-176" target="rUHpHmAmDrawOtp_Pwaj-59">
          <mxGeometry relative="1" as="geometry" />
        </mxCell>
        <mxCell id="rUHpHmAmDrawOtp_Pwaj-182" value="&lt;p class=&quot;pf0&quot;&gt;&lt;span class=&quot;cf0&quot;&gt;3.4.1. QR Code Scanning&lt;/span&gt;&lt;/p&gt;" style="ellipse;whiteSpace=wrap;html=1;fillColor=#dae8fc;strokeColor=#6c8ebf;" vertex="1" parent="1">
          <mxGeometry x="-1220" y="110" width="100" height="50" as="geometry" />
        </mxCell>
        <mxCell id="rUHpHmAmDrawOtp_Pwaj-184" style="edgeStyle=orthogonalEdgeStyle;rounded=0;orthogonalLoop=1;jettySize=auto;html=1;exitX=0.5;exitY=0;exitDx=0;exitDy=0;entryX=0.333;entryY=0.967;entryDx=0;entryDy=0;entryPerimeter=0;" edge="1" parent="1" source="rUHpHmAmDrawOtp_Pwaj-182" target="rUHpHmAmDrawOtp_Pwaj-58">
          <mxGeometry relative="1" as="geometry" />
        </mxCell>
        <mxCell id="rUHpHmAmDrawOtp_Pwaj-185" value="&lt;p class=&quot;pf0&quot;&gt;&lt;span class=&quot;cf0&quot;&gt;4.1.2. Account Type Selection&lt;/span&gt;&lt;/p&gt;" style="ellipse;whiteSpace=wrap;html=1;fillColor=#dae8fc;strokeColor=#6c8ebf;" vertex="1" parent="1">
          <mxGeometry x="-460" y="950" width="140" height="50" as="geometry" />
        </mxCell>
        <mxCell id="rUHpHmAmDrawOtp_Pwaj-186" value="&lt;span class=&quot;cf0&quot;&gt;4.1.3. System Account Creation&lt;/span&gt;" style="ellipse;whiteSpace=wrap;html=1;fillColor=#dae8fc;strokeColor=#6c8ebf;" vertex="1" parent="1">
          <mxGeometry x="-565" y="999.38" width="140" height="50" as="geometry" />
        </mxCell>
        <mxCell id="rUHpHmAmDrawOtp_Pwaj-187" style="edgeStyle=orthogonalEdgeStyle;rounded=0;orthogonalLoop=1;jettySize=auto;html=1;exitX=0;exitY=0.25;exitDx=0;exitDy=0;entryX=0.908;entryY=0.827;entryDx=0;entryDy=0;entryPerimeter=0;" edge="1" parent="1" source="rUHpHmAmDrawOtp_Pwaj-22" target="rUHpHmAmDrawOtp_Pwaj-185">
          <mxGeometry relative="1" as="geometry">
            <Array as="points">
              <mxPoint x="-135" y="1160" />
              <mxPoint x="-333" y="1160" />
            </Array>
          </mxGeometry>
        </mxCell>
        <mxCell id="rUHpHmAmDrawOtp_Pwaj-189" value="&lt;p class=&quot;pf0&quot;&gt;&lt;span class=&quot;cf0&quot;&gt;4.2.1. Permission Groups&lt;/span&gt;&lt;/p&gt;" style="ellipse;whiteSpace=wrap;html=1;fillColor=#dae8fc;strokeColor=#6c8ebf;" vertex="1" parent="1">
          <mxGeometry x="-475" y="1080" width="100" height="50" as="geometry" />
        </mxCell>
        <mxCell id="rUHpHmAmDrawOtp_Pwaj-190" value="&lt;span class=&quot;cf0&quot;&gt;4.2.2. Role Assignment&lt;/span&gt;" style="ellipse;whiteSpace=wrap;html=1;fillColor=#dae8fc;strokeColor=#6c8ebf;" vertex="1" parent="1">
          <mxGeometry x="-525" y="1130" width="100" height="50" as="geometry" />
        </mxCell>
        <mxCell id="rUHpHmAmDrawOtp_Pwaj-192" value="&lt;p class=&quot;pf0&quot;&gt;&lt;span class=&quot;cf0&quot;&gt;4.3.2. Access Revocation&lt;/span&gt;&lt;/p&gt;" style="ellipse;whiteSpace=wrap;html=1;fillColor=#dae8fc;strokeColor=#6c8ebf;" vertex="1" parent="1">
          <mxGeometry x="-612.5" y="1190" width="100" height="50" as="geometry" />
        </mxCell>
        <mxCell id="rUHpHmAmDrawOtp_Pwaj-193" value="&lt;p class=&quot;pf0&quot;&gt;&lt;span class=&quot;cf0&quot;&gt;4.3.3. Suspension Logging&lt;/span&gt;&lt;/p&gt;" style="ellipse;whiteSpace=wrap;html=1;fillColor=#dae8fc;strokeColor=#6c8ebf;" vertex="1" parent="1">
          <mxGeometry x="-510" y="1220" width="100" height="50" as="geometry" />
        </mxCell>
        <mxCell id="rUHpHmAmDrawOtp_Pwaj-197" value="&lt;p class=&quot;pf0&quot;&gt;&lt;span class=&quot;cf0&quot;&gt;5.2.2. Time Adjustments&lt;/span&gt;&lt;/p&gt;" style="ellipse;whiteSpace=wrap;html=1;fillColor=#dae8fc;strokeColor=#6c8ebf;" vertex="1" parent="1">
          <mxGeometry x="-150" y="970" width="130" height="50" as="geometry" />
        </mxCell>
        <mxCell id="rUHpHmAmDrawOtp_Pwaj-198" value="&lt;p class=&quot;pf0&quot;&gt;&lt;span class=&quot;cf0&quot;&gt;5.2.3. Service Modifications&lt;/span&gt;&lt;/p&gt;" style="ellipse;whiteSpace=wrap;html=1;fillColor=#dae8fc;strokeColor=#6c8ebf;" vertex="1" parent="1">
          <mxGeometry x="-60" y="1020" width="130" height="50" as="geometry" />
        </mxCell>
        <mxCell id="rUHpHmAmDrawOtp_Pwaj-199" value="&lt;p class=&quot;pf0&quot;&gt;&lt;span class=&quot;cf0&quot;&gt;5.2.4. Change Validation&lt;/span&gt;&lt;/p&gt;" style="ellipse;whiteSpace=wrap;html=1;fillColor=#dae8fc;strokeColor=#6c8ebf;" vertex="1" parent="1">
          <mxGeometry y="940" width="130" height="50" as="geometry" />
        </mxCell>
        <mxCell id="rUHpHmAmDrawOtp_Pwaj-202" style="edgeStyle=orthogonalEdgeStyle;rounded=0;orthogonalLoop=1;jettySize=auto;html=1;exitX=0.75;exitY=0;exitDx=0;exitDy=0;entryX=0.363;entryY=1.027;entryDx=0;entryDy=0;entryPerimeter=0;" edge="1" parent="1" source="rUHpHmAmDrawOtp_Pwaj-22" target="rUHpHmAmDrawOtp_Pwaj-198">
          <mxGeometry relative="1" as="geometry" />
        </mxCell>
        <mxCell id="rUHpHmAmDrawOtp_Pwaj-203" style="edgeStyle=orthogonalEdgeStyle;rounded=0;orthogonalLoop=1;jettySize=auto;html=1;exitX=1;exitY=0.25;exitDx=0;exitDy=0;entryX=0.601;entryY=1.042;entryDx=0;entryDy=0;entryPerimeter=0;" edge="1" parent="1" source="rUHpHmAmDrawOtp_Pwaj-22" target="rUHpHmAmDrawOtp_Pwaj-199">
          <mxGeometry relative="1" as="geometry" />
        </mxCell>
        <mxCell id="rUHpHmAmDrawOtp_Pwaj-204" style="edgeStyle=orthogonalEdgeStyle;rounded=0;orthogonalLoop=1;jettySize=auto;html=1;entryX=0.262;entryY=0.965;entryDx=0;entryDy=0;entryPerimeter=0;" edge="1" parent="1" source="rUHpHmAmDrawOtp_Pwaj-22" target="rUHpHmAmDrawOtp_Pwaj-73">
          <mxGeometry relative="1" as="geometry" />
        </mxCell>
        <mxCell id="rUHpHmAmDrawOtp_Pwaj-208" style="edgeStyle=orthogonalEdgeStyle;rounded=0;orthogonalLoop=1;jettySize=auto;html=1;exitX=1;exitY=1;exitDx=0;exitDy=0;entryX=0.571;entryY=0.048;entryDx=0;entryDy=0;entryPerimeter=0;" edge="1" parent="1" source="rUHpHmAmDrawOtp_Pwaj-72" target="rUHpHmAmDrawOtp_Pwaj-197">
          <mxGeometry relative="1" as="geometry" />
        </mxCell>
        <mxCell id="rUHpHmAmDrawOtp_Pwaj-209" style="edgeStyle=orthogonalEdgeStyle;rounded=0;orthogonalLoop=1;jettySize=auto;html=1;exitX=1;exitY=1;exitDx=0;exitDy=0;entryX=0.341;entryY=0.063;entryDx=0;entryDy=0;entryPerimeter=0;" edge="1" parent="1" source="rUHpHmAmDrawOtp_Pwaj-197" target="rUHpHmAmDrawOtp_Pwaj-198">
          <mxGeometry relative="1" as="geometry" />
        </mxCell>
        <mxCell id="rUHpHmAmDrawOtp_Pwaj-210" style="edgeStyle=orthogonalEdgeStyle;rounded=0;orthogonalLoop=1;jettySize=auto;html=1;exitX=1;exitY=0;exitDx=0;exitDy=0;entryX=0.423;entryY=1.068;entryDx=0;entryDy=0;entryPerimeter=0;" edge="1" parent="1" source="rUHpHmAmDrawOtp_Pwaj-198" target="rUHpHmAmDrawOtp_Pwaj-199">
          <mxGeometry relative="1" as="geometry" />
        </mxCell>
        <mxCell id="rUHpHmAmDrawOtp_Pwaj-222" style="edgeStyle=orthogonalEdgeStyle;rounded=0;orthogonalLoop=1;jettySize=auto;html=1;exitX=1;exitY=0;exitDx=0;exitDy=0;entryX=0.5;entryY=1;entryDx=0;entryDy=0;" edge="1" parent="1" source="rUHpHmAmDrawOtp_Pwaj-211" target="rUHpHmAmDrawOtp_Pwaj-36">
          <mxGeometry relative="1" as="geometry" />
        </mxCell>
        <mxCell id="rUHpHmAmDrawOtp_Pwaj-211" value="&lt;p class=&quot;pf0&quot;&gt;&lt;span class=&quot;cf0&quot;&gt;5.4.2. Event Service Planning&lt;/span&gt;&lt;/p&gt;" style="ellipse;whiteSpace=wrap;html=1;fillColor=#dae8fc;strokeColor=#6c8ebf;" vertex="1" parent="1">
          <mxGeometry x="-150" y="1320" width="130" height="50" as="geometry" />
        </mxCell>
        <mxCell id="rUHpHmAmDrawOtp_Pwaj-221" style="edgeStyle=orthogonalEdgeStyle;rounded=0;orthogonalLoop=1;jettySize=auto;html=1;exitX=1;exitY=0;exitDx=0;exitDy=0;entryX=0.75;entryY=1;entryDx=0;entryDy=0;" edge="1" parent="1" source="rUHpHmAmDrawOtp_Pwaj-212" target="rUHpHmAmDrawOtp_Pwaj-36">
          <mxGeometry relative="1" as="geometry" />
        </mxCell>
        <mxCell id="rUHpHmAmDrawOtp_Pwaj-212" value="&lt;p class=&quot;pf0&quot;&gt;&lt;span class=&quot;cf0&quot;&gt;5.4.3. Weather Contingency&lt;/span&gt;&lt;/p&gt;" style="ellipse;whiteSpace=wrap;html=1;fillColor=#dae8fc;strokeColor=#6c8ebf;" vertex="1" parent="1">
          <mxGeometry x="-10" y="1300" width="130" height="50" as="geometry" />
        </mxCell>
        <mxCell id="rUHpHmAmDrawOtp_Pwaj-213" value="&lt;p class=&quot;pf0&quot;&gt;&lt;span class=&quot;cf0&quot;&gt;5.4.4. Emergency Response&lt;/span&gt;&lt;/p&gt;" style="ellipse;whiteSpace=wrap;html=1;fillColor=#dae8fc;strokeColor=#6c8ebf;" vertex="1" parent="1">
          <mxGeometry x="130" y="1260" width="130" height="50" as="geometry" />
        </mxCell>
        <mxCell id="rUHpHmAmDrawOtp_Pwaj-216" style="edgeStyle=orthogonalEdgeStyle;rounded=0;orthogonalLoop=1;jettySize=auto;html=1;exitX=0.5;exitY=1;exitDx=0;exitDy=0;entryX=0.633;entryY=-0.013;entryDx=0;entryDy=0;entryPerimeter=0;" edge="1" parent="1" source="rUHpHmAmDrawOtp_Pwaj-22" target="rUHpHmAmDrawOtp_Pwaj-211">
          <mxGeometry relative="1" as="geometry" />
        </mxCell>
        <mxCell id="rUHpHmAmDrawOtp_Pwaj-220" style="edgeStyle=orthogonalEdgeStyle;rounded=0;orthogonalLoop=1;jettySize=auto;html=1;exitX=0;exitY=0;exitDx=0;exitDy=0;entryX=0.892;entryY=1.039;entryDx=0;entryDy=0;entryPerimeter=0;" edge="1" parent="1" source="rUHpHmAmDrawOtp_Pwaj-213" target="rUHpHmAmDrawOtp_Pwaj-36">
          <mxGeometry relative="1" as="geometry" />
        </mxCell>
      </root>
    </mxGraphModel>
  </diagram>
</mxfile>
